<?xml version="1.0" standalone="no"?>
<!DOCTYPE svg PUBLIC "-//W3C//DTD SVG 1.1//EN" "http://www.w3.org/Graphics/SVG/1.1/DTD/svg11.dtd" >
<svg xmlns="http://www.w3.org/2000/svg">
<metadata>
This is a custom SVG webfont generated by Font Squirrel.
Copyright   : Copyright c 1989 1990 Adobe Systems Incorporated  All Rights ReservedTrade Gothic is a trademark of Linotype AG andor its subsidiaries
</metadata>
<defs>
<font id="webfontIwEVUZ6Y" horiz-adv-x="1138" >
<font-face units-per-em="2048" ascent="1638" descent="-410" />
<missing-glyph horiz-adv-x="569" />
<glyph unicode=" "  horiz-adv-x="569" />
<glyph unicode="&#x09;" horiz-adv-x="569" />
<glyph unicode="&#xa0;" horiz-adv-x="569" />
<glyph unicode="!" horiz-adv-x="454" d="M139 0v184h176v-184h-176zM139 1479h176l-36 -1024h-103z" />
<glyph unicode="&#x22;" horiz-adv-x="681" d="M176 1016v463h103v-463h-103zM403 1016v463h103v-463h-103z" />
<glyph unicode="#" d="M51 481v99h254l47 321h-241v98h254l67 480h103l-68 -480h301l68 480h102l-68 -480h217v-98h-231l-45 -321h217v-99h-231l-68 -481h-100l67 481h-303l-67 -481h-101l68 481h-242zM408 580h301l47 321h-303z" />
<glyph unicode="$" d="M59 299l97 68q51 -117 143 -189q102 -80 223 -80v609q-184 51 -278 127q-131 104 -131 268q0 180 113.5 278.5t295.5 98.5v143h99v-143q133 0 245 -78q98 -68 142 -164l-88 -70q-49 90 -124 144.5t-175 66.5v-577q258 -74 358 -185q84 -92 84 -229q0 -180 -135 -289 q-123 -98 -307 -98v-244h-99v244q-150 0 -273.5 80t-189.5 219zM223 1112q0 -123 92 -194q68 -51 207 -89v551q-123 0 -211 -73.5t-88 -194.5zM621 98q131 0 231 84t100 209q0 117 -110 193q-59 39 -221 96v-582z" />
<glyph unicode="%" horiz-adv-x="1820" d="M168 1143q0 139 98.5 237.5t237.5 98.5t237.5 -98.5t98.5 -237.5t-98.5 -237.5t-237.5 -98.5t-237.5 98.5t-98.5 237.5zM266 1143q0 -98 70 -168t168 -70t167.5 69.5t69.5 168.5q0 98 -69.5 167.5t-167.5 69.5t-168 -69.5t-70 -167.5zM424 -20l868 1519h109l-871 -1519 h-106zM981 336q0 139 98.5 237.5t237.5 98.5t237.5 -98.5t98.5 -237.5t-98.5 -237.5t-237.5 -98.5t-237.5 98.5t-98.5 237.5zM1079 336q0 -98 70 -168t168 -70t167.5 70t69.5 168t-69.5 167.5t-167.5 69.5t-168 -69.5t-70 -167.5z" />
<glyph unicode="&#x26;" horiz-adv-x="1366" d="M88 360q0 158 78 263q68 90 262 223q-55 82 -86 169t-31 175q0 145 82 227t221 82q131 0 213 -75.5t82 -206.5q0 -160 -139 -293q-47 -45 -164 -131l168 -246q98 -143 176 -225q113 172 154 374l127 -24q-53 -242 -187 -436q59 -61 113 -93q70 -41 141 -41v-122 q-96 0 -180 41.5t-164 119.5q-178 -162 -422 -161q-186 0 -309 94q-135 104 -135 286zM223 352q0 -123 99 -196q88 -66 217 -66q115 0 211 51q63 33 118 92q-68 63 -194 236q-115 158 -182 268q-135 -76 -195 -149q-74 -95 -74 -236zM446 1176q0 -70 25 -141.5t66 -129.5 q106 57 171.5 143.5t65.5 176.5q0 74 -41 119t-125 45q-76 0 -119 -51t-43 -162z" />
<glyph unicode="'" horiz-adv-x="454" d="M176 1016v463h103v-463h-103z" />
<glyph unicode="(" horiz-adv-x="681" d="M139 666q0 211 72 429t211 404h147q-154 -182 -230.5 -401t-76.5 -432q0 -211 74 -422q82 -231 233 -412h-147q-135 182 -209 405.5t-74 428.5z" />
<glyph unicode=")" horiz-adv-x="681" d="M113 -168q154 182 233 410q74 211 74 424q0 211 -74 421q-82 231 -233 412h147q135 -182 209 -405.5t74 -427.5q0 -211 -72 -429.5t-211 -404.5h-147z" />
<glyph unicode="*" horiz-adv-x="1024" d="M178 1188l37 106l270 -104l-26 289h110l-22 -289l266 108l33 -102l-287 -70l186 -211l-90 -71l-139 254l-143 -254l-92 61l190 221z" />
<glyph unicode="+" horiz-adv-x="1228" d="M82 477v111h477v477h111v-477h477v-111h-477v-477h-111v477h-477z" />
<glyph unicode="," horiz-adv-x="569" d="M164 -307l119 307h-86v184h176v-184l-129 -307h-80z" />
<glyph unicode="-" horiz-adv-x="681" d="M86 477v111h510v-111h-510z" />
<glyph unicode="." horiz-adv-x="569" d="M197 0v184h176v-184h-176z" />
<glyph unicode="/" horiz-adv-x="569" d="M-25 -20l506 1519h113l-498 -1519h-121z" />
<glyph unicode="0" d="M57 739q0 336 121 537q135 223 391 223t392 -223q121 -201 120 -537q0 -336 -120 -536q-135 -223 -392 -223q-256 0 -391 223q-121 200 -121 536zM193 739q0 -303 88 -469q96 -180 288 -180q193 0 289 180q88 164 88 469q0 303 -88 469q-96 180 -289 181 q-193 0 -288 -181q-88 -164 -88 -469z" />
<glyph unicode="1" d="M246 1311v80l332 108h86v-1388h245v-111h-635v111h254v1241z" />
<glyph unicode="2" d="M90 0v86q0 90 94 209q125 156 412 369q207 156 258 231q45 66 45 186q0 141 -78 222q-84 86 -248 86q-274 0 -348 -334l-119 22q37 201 164 311.5t318 110.5q201 0 317.5 -110.5t116.5 -303.5q0 -143 -76 -252.5t-287 -259.5q-123 -86 -190 -141q-115 -92 -178 -166 q-78 -90 -78 -155h811v-111h-934z" />
<glyph unicode="3" d="M29 274l108 62q66 -137 157 -191.5t238 -54.5q365 0 365 324q0 315 -426 315h-135v111h110q406 0 406 286q0 135 -83 199t-239 64q-100 0 -180 -46.5t-160 -146.5l-96 70q102 125 210 179t237 54q174 0 295 -76q152 -94 151 -284q0 -131 -54 -210t-183 -138 q133 -49 202 -134q80 -96 80 -239q0 -223 -143 -336q-131 -102 -363 -102q-182 0 -308 72t-189 222z" />
<glyph unicode="4" d="M29 373v104l649 1002h180v-998h223v-108h-223v-373h-135v373h-694zM164 483h559v869h-14z" />
<glyph unicode="5" d="M94 256l111 72q61 -125 146 -181.5t206 -56.5q184 0 287 121q90 106 90 268q0 178 -92 286.5t-256 108.5q-100 0 -195.5 -56t-136.5 -148l-107 18l66 791h735v-111h-635l-41 -514q137 131 332 131q207 0 334 -147q119 -137 119 -349q0 -229 -134.5 -369t-381.5 -140 q-143 0 -263.5 71.5t-183.5 204.5z" />
<glyph unicode="6" d="M74 686q0 322 137 547q162 266 453 266q188 0 350 -123l-62 -100q-51 61 -126.5 87t-163.5 26q-229 0 -353 -224q-100 -184 -100 -436q76 86 182.5 141.5t214.5 55.5q221 0 348 -137.5t127 -350.5q0 -207 -149 -336q-141 -123 -350 -122q-281 0 -408 225 q-100 178 -100 481zM213 526q0 -201 101.5 -318.5t271.5 -117.5q172 0 266 98.5t94 272.5q0 158 -94 256t-268 98q-143 0 -267 -123q-104 -105 -104 -166z" />
<glyph unicode="7" d="M113 1368v111h913v-80l-629 -1399h-145l631 1368h-770z" />
<glyph unicode="8" d="M49 381q0 119 74 211q82 104 266 186q-283 100 -283 346q0 182 123 278.5t340 96.5q215 0 339 -96t124 -279q0 -246 -282 -346q180 -82 264 -186q76 -94 76 -211q0 -211 -144 -311q-129 -90 -377 -90q-244 0 -374 90q-146 100 -146 311zM184 381q0 -145 111 -221 q100 -70 274 -70q172 0 275 70q111 76 110 221q0 113 -100 192q-80 63 -285 148q-199 -80 -282 -148q-103 -81 -103 -192zM242 1130q0 -113 94 -190q82 -68 233 -109q154 41 234 107q94 78 94 192q0 127 -88 193t-240 66q-150 0 -238.5 -66t-88.5 -193z" />
<glyph unicode="9" d="M37 1008q0 225 149 362q141 129 351 129q281 0 407 -225q100 -178 100 -481q0 -330 -118 -547q-145 -266 -439 -266q-121 0 -210 29.5t-173 92.5l62 105q63 -59 125.5 -88t159.5 -29q238 0 358 205q100 172 100 442q-78 -90 -182 -145t-215 -55q-217 0 -350 143 q-125 135 -125 328zM172 1018q0 -164 95 -267.5t268 -103.5q143 0 266 125q104 106 104 168q0 207 -100 328t-273 121q-172 0 -266 -98.5t-94 -272.5z" />
<glyph unicode=":" horiz-adv-x="569" d="M197 0v184h176v-184h-176zM197 623v184h176v-184h-176z" />
<glyph unicode=";" horiz-adv-x="569" d="M164 -307l119 307h-86v184h176v-184l-129 -307h-80zM197 623v184h176v-184h-176z" />
<glyph unicode="&#x3c;" horiz-adv-x="1228" d="M82 475v115l1065 487v-119l-926 -426l926 -426v-118z" />
<glyph unicode="=" horiz-adv-x="1228" d="M82 272v111h1065v-111h-1065zM82 682v111h1065v-111h-1065z" />
<glyph unicode="&#x3e;" horiz-adv-x="1228" d="M82 -12v118l926 426l-926 426v119l1065 -487v-115z" />
<glyph unicode="?" horiz-adv-x="796" d="M59 1247q43 119 123 183q88 70 215 69q141 0 236 -84q102 -92 102 -250q0 -113 -90 -223l-168 -180q-90 -106 -90 -213v-98h-111v147q0 100 162 280.5t162 313.5q0 92 -58.5 144.5t-146.5 52.5q-92 0 -155 -64q-45 -45 -78 -129zM238 0v184h176v-184h-176z" />
<glyph unicode="@" horiz-adv-x="1638" d="M98 745q0 309 222.5 531.5t529.5 222.5q291 0 490.5 -179t199.5 -454q0 -229 -148.5 -407t-316.5 -178q-57 0 -98 36.5t-41 106.5l-4 -4q-55 -57 -119 -94q-78 -45 -149 -45q-125 0 -202 89t-77 216q0 231 137 411q147 195 361 195q74 0 132 -41t91 -133l53 135h111 l-201 -604l-18.5 -62.5t-8.5 -52.5q0 -59 54 -59q125 0 231.5 159.5t106.5 337.5q0 238 -177 392q-166 145 -403 145q-274 0 -461.5 -199.5t-187.5 -478.5q0 -272 190.5 -466.5t462.5 -194.5q156 0 303.5 75.5t239.5 206.5h106q-94 -172 -271 -272t-378 -100 q-322 0 -541 223t-219 542zM512 596q0 -94 51 -151.5t129 -57.5q137 0 248 180q100 162 100 320q0 74 -52 136t-114 62q-147 0 -260 -170q-102 -155 -102 -319z" />
<glyph unicode="A" horiz-adv-x="1251" d="M51 0l473 1479h207l467 -1479h-143l-150 483h-559l-151 -483h-144zM381 594h493l-245 774z" />
<glyph unicode="B" horiz-adv-x="1366" d="M205 0v1479h413q274 0 399.5 -88t125.5 -283q0 -119 -49.5 -193.5t-159.5 -126.5q127 -55 197.5 -151t70.5 -231q0 -219 -143 -318q-127 -88 -383 -88h-471zM340 111h350q195 0 286 72.5t91 230.5q0 135 -98 213q-109 86 -322 86h-307v-602zM340 823h322q152 0 237 56 q109 70 109 219q0 156 -101 217q-88 53 -301 53h-266v-545z" />
<glyph unicode="C" horiz-adv-x="1251" d="M98 739q0 346 151.5 553t418.5 207q186 0 311 -123q111 -109 162 -305l-125 -27q-100 344 -361 345q-209 0 -319 -189q-102 -174 -103 -461q0 -291 103 -460q115 -188 334 -189q164 0 256 107q74 84 116 254l127 -23q-45 -213 -155 -324q-127 -125 -346 -124 q-266 0 -418 205.5t-152 553.5z" />
<glyph unicode="D" horiz-adv-x="1366" d="M205 0v1479h418q326 0 493 -222q150 -197 150 -518q0 -322 -150 -518q-168 -221 -493 -221h-418zM340 111h287q246 0 374.5 162.5t128.5 465.5q0 301 -129 465t-374 164h-287v-1257z" />
<glyph unicode="E" d="M205 0v1479h844v-111h-709v-545h510v-110h-510v-602h747v-111h-882z" />
<glyph unicode="F" d="M205 0v1479h868v-111h-733v-545h534v-110h-534v-713h-135z" />
<glyph unicode="G" horiz-adv-x="1366" d="M98 739q0 354 168 564q158 197 406 196q201 0 334 -119q125 -113 165 -309l-127 -22q-37 152 -124 239q-102 100 -256 101q-197 0 -314 -174.5t-117 -475.5q0 -285 93 -444q119 -205 381 -205q154 0 250 102.5t96 253.5v136h-373v110h508v-692h-117v145 q-70 -86 -163 -125.5t-242 -39.5q-254 0 -408 196q-160 205 -160 563z" />
<glyph unicode="H" horiz-adv-x="1478" d="M205 0v1479h135v-656h799v656h135v-1479h-135v713h-799v-713h-135z" />
<glyph unicode="I" horiz-adv-x="569" d="M217 0v1479h135v-1479h-135z" />
<glyph unicode="J" horiz-adv-x="909" d="M0 176l109 64q49 -84 90 -113q53 -37 143 -37q98 0 148.5 63.5t50.5 198.5v1127h135v-1168q0 -162 -91 -246.5t-251 -84.5q-129 0 -201 45t-133 151z" />
<glyph unicode="K" horiz-adv-x="1251" d="M205 0v1479h135v-803l676 803h166l-477 -566l534 -913h-152l-469 815l-278 -321v-494h-135z" />
<glyph unicode="L" horiz-adv-x="1024" d="M205 0v1479h135v-1368h659v-111h-794z" />
<glyph unicode="M" horiz-adv-x="1705" d="M205 0v1479h237l408 -1254l414 1254h237v-1479h-135v1368l-448 -1368h-130l-444 1368l-4 -1368h-135z" />
<glyph unicode="N" horiz-adv-x="1478" d="M205 0v1479h227l703 -1233l4 1233h135v-1479h-139l-791 1368l-4 -1368h-135z" />
<glyph unicode="O" horiz-adv-x="1366" d="M98 739q0 336 152 543q160 217 432 217t428 -212t156 -548t-152 -542q-160 -217 -432 -217t-428 211.5t-156 547.5zM233 739q0 -311 120 -480t329 -169q207 0 327.5 171t120.5 478q0 311 -119.5 480.5t-328.5 169.5q-207 0 -328 -171.5t-121 -478.5z" />
<glyph unicode="P" horiz-adv-x="1251" d="M205 0v1479h446q254 0 381 -113q119 -106 119 -299q0 -195 -117 -299q-127 -113 -383 -113h-311v-655h-135zM340 766h311q188 0 276.5 76t88.5 225q0 301 -365 301h-311v-602z" />
<glyph unicode="Q" horiz-adv-x="1366" d="M98 739q0 336 152 543q160 217 432 217t428 -212t156 -548q0 -391 -201 -598q47 -82 101.5 -111.5t152.5 -29.5v-123q-106 0 -193 41q-98 47 -153 145q-125 -84 -291 -83q-272 0 -428 211.5t-156 547.5zM233 739q0 -311 120 -480t329 -169q135 0 233 74q-47 80 -90 114.5 t-104 43.5v133q176 -31 287 -197q123 170 122 481q0 311 -119.5 480.5t-328.5 169.5q-207 0 -328 -171.5t-121 -478.5z" />
<glyph unicode="R" horiz-adv-x="1366" d="M205 0v1479h500q215 0 334.5 -107.5t119.5 -294.5q0 -299 -307 -377l362 -700h-147l-344 676h-383v-676h-135zM340 786h365q150 0 234.5 77t84.5 214t-81 214t-238 77h-365v-582z" />
<glyph unicode="S" d="M66 375l124 39q43 -168 144.5 -246t277.5 -78q139 0 217 80t78 215q0 162 -207 256l-385 156q-209 113 -209 319q0 172 112 277.5t314 105.5q174 0 298 -92t176 -262l-117 -35q-43 129 -127 201q-92 78 -230 78q-131 0 -210.5 -72t-79.5 -201q0 -86 47 -135 q63 -68 254 -139q305 -115 405 -213q94 -92 94 -258q0 -182 -135 -291q-125 -100 -315 -100q-211 0 -338 96t-188 299z" />
<glyph unicode="T" d="M63 1368v111h1012v-111h-438v-1368h-135v1368h-439z" />
<glyph unicode="U" horiz-adv-x="1478" d="M205 483v996h135v-1008q0 -207 100 -297q94 -84 299 -84q203 0 297 84q102 90 103 297v1008h135v-996q0 -504 -535 -503q-534 -1 -534 503z" />
<glyph unicode="V" d="M16 1479h144l401 -1286l418 1286h143l-491 -1479h-135z" />
<glyph unicode="W" horiz-adv-x="1705" d="M33 1479h137l315 -1233l299 1233h136l288 -1233l326 1233h137l-395 -1479h-135l-289 1217l-293 -1217h-135z" />
<glyph unicode="X" d="M25 0l460 774l-434 705h160l354 -590l346 590h160l-426 -705l469 -774h-160l-389 647l-381 -647h-159z" />
<glyph unicode="Y" d="M41 1479h152l364 -731l389 731h152l-469 -852v-627h-135v627z" />
<glyph unicode="Z" d="M94 0v111l772 1257h-708v111h876v-115l-772 -1253h782v-111h-950z" />
<glyph unicode="[" horiz-adv-x="681" d="M180 -147v1626h381v-74h-258v-1479h258v-73h-381z" />
<glyph unicode="\" horiz-adv-x="569" d="M-25 1499h113l506 -1519h-121z" />
<glyph unicode="]" horiz-adv-x="681" d="M121 -74h258v1479h-258v74h381v-1626h-381v73z" />
<glyph unicode="^" horiz-adv-x="1228" d="M115 606l444 873h109l446 -873h-135l-369 725l-360 -725h-135z" />
<glyph unicode="_" horiz-adv-x="1024" d="M0 -154h1024v-102h-1024v102z" />
<glyph unicode="`" horiz-adv-x="454" d="M-29 1466h158l227 -282h-104z" />
<glyph unicode="a" horiz-adv-x="1024" d="M53 258q0 139 75 218t232 130q104 35 375 94v74q0 109 -54 161t-189 52q-94 0 -172 -49t-138 -143l-82 49q68 125 165 183t231 58q182 0 269 -78.5t87 -254.5v-557q0 -61 2 -94t14 -101h-118l-17 129q-102 -80 -186 -114.5t-201 -34.5q-129 0 -211 73.5t-82 204.5z M176 260q0 -86 52.5 -134t138.5 -48t184 47t178 129v348q-338 -74 -459 -160q-94 -67 -94 -182z" />
<glyph unicode="b" d="M188 0v1479h123v-553q80 84 155 121.5t179 37.5q184 0 302 -154.5t118 -391.5q0 -270 -110.5 -414.5t-317.5 -144.5q-115 0 -199 37.5t-143 121.5l-21 -139h-86zM311 272q72 -98 131 -139q80 -55 189 -55q154 0 235 127q76 117 76 311q0 215 -84 343t-246 128 q-84 0 -180 -67q-84 -59 -121 -123v-525z" />
<glyph unicode="c" horiz-adv-x="1024" d="M74 532q0 270 122.5 411.5t335.5 141.5q145 0 242.5 -75.5t147.5 -212.5l-113 -31q-47 104 -104 156q-74 66 -173 65q-160 0 -243 -102q-92 -113 -92 -353q0 -207 89 -330.5t246 -123.5q106 0 185 59q66 49 135 162l98 -47q-76 -127 -166 -193q-111 -80 -252 -79 q-219 0 -338.5 151t-119.5 401z" />
<glyph unicode="d" d="M74 539q0 238 117.5 392t302.5 154q106 0 177.5 -35.5t155.5 -123.5v553h123v-1479h-86l-20 139q-57 -80 -144.5 -119.5t-197.5 -39.5q-207 0 -317.5 143.5t-110.5 415.5zM197 516q0 -195 78.5 -316.5t232.5 -121.5q106 0 186 55q63 45 133 139v525q-35 59 -120 121 q-98 70 -181 69q-162 0 -245.5 -128t-83.5 -343z" />
<glyph unicode="e" horiz-adv-x="1024" d="M74 532q0 250 117.5 401.5t320.5 151.5q211 0 322 -153q104 -145 104 -404h-741q0 -197 79 -315q90 -135 263 -135q104 0 167.5 44t143.5 171l100 -53q-88 -145 -179 -202.5t-243 -57.5q-215 0 -331 135q-123 141 -123 417zM197 627h618q-18 170 -94 265t-213 95 q-147 0 -238 -127q-73 -104 -73 -233z" />
<glyph unicode="f" horiz-adv-x="569" d="M20 967v98h177v152q0 141 60 211.5t196 70.5q35 0 66 -5l67 -11v-103q-27 8 -58.5 14.5t-62.5 6.5q-74 0 -110 -40t-36 -130v-166h218v-98h-218v-967h-122v967h-177z" />
<glyph unicode="g" horiz-adv-x="1024" d="M41 -125q0 76 40 131t146 94q-70 18 -100 45q-41 35 -41 99q0 66 48 117t112 63q-154 104 -154 278q0 176 113.5 279.5t308.5 103.5q78 0 133 -17t115 -56q94 94 223 94v-111q-51 0 -96 -10t-74 -39q37 -45 56.5 -97t19.5 -126q0 -186 -121 -285q-109 -88 -291 -88 q-63 0 -112 12l-60 21q-98 -35 -98 -102q0 -51 61.5 -72t268.5 -21q236 0 344 -70.5t108 -205.5q0 -129 -104 -203q-123 -86 -381 -86q-252 0 -369 78q-96 63 -96 174zM164 -102q0 -82 81 -129.5t242 -47.5q195 0 288 47.5t93 135.5q0 78 -73 121q-94 53 -316 53 q-168 0 -248 -55q-67 -47 -67 -125zM215 715q0 -131 82 -203q74 -63 195 -63q133 0 204.5 65.5t71.5 200.5t-72.5 203.5t-203.5 68.5q-129 0 -203 -73.5t-74 -198.5z" />
<glyph unicode="h" d="M168 0v1479h123v-582q96 100 166 139q86 49 198 49q162 0 239 -91t77 -267v-727h-123v715q0 139 -49 205.5t-168 66.5q-102 0 -207 -84q-23 -18 -133 -119v-784h-123z" />
<glyph unicode="i" horiz-adv-x="454" d="M166 0v1065h123v-1065h-123zM166 1298v181h123v-181h-123z" />
<glyph unicode="j" horiz-adv-x="454" d="M-41 -264q51 -14 86 -15q121 0 121 111v1233h123v-1235q0 -111 -55.5 -159t-163.5 -48q-68 0 -111 12v101zM166 1298v181h123v-181h-123z" />
<glyph unicode="k" horiz-adv-x="1024" d="M168 0v1479h123v-979l493 565h142l-346 -397l399 -668h-137l-340 582l-211 -238v-344h-123z" />
<glyph unicode="l" horiz-adv-x="454" d="M166 0v1479h123v-1479h-123z" />
<glyph unicode="m" horiz-adv-x="1705" d="M168 0v1065h123v-162q90 94 155 133q84 49 199 49q92 0 164 -52t94 -142q80 94 154 139q90 55 198 55q281 0 281 -288v-797h-123v809q0 178 -184 178q-74 0 -169 -62.5t-147 -140.5v-784h-122v809q0 178 -185 178q-74 0 -169 -62.5t-146 -140.5v-784h-123z" />
<glyph unicode="n" d="M168 0v1065h123v-168q96 100 166 139q86 49 198 49q162 0 239 -91t77 -267v-727h-123v715q0 139 -49 205.5t-168 66.5q-102 0 -207 -84q-23 -18 -133 -119v-784h-123z" />
<glyph unicode="o" horiz-adv-x="1024" d="M74 532q0 244 94 386q111 168 344 167q231 0 344 -167q94 -141 94 -386q0 -244 -94 -385q-111 -168 -344 -167q-231 0 -344 167q-94 141 -94 385zM197 532q0 -223 75.5 -338.5t239.5 -115.5q160 0 237.5 116.5t77.5 337.5q0 223 -75.5 339t-239.5 116q-160 0 -237.5 -117 t-77.5 -338z" />
<glyph unicode="p" d="M188 -377v1442h123v-164q133 184 326 184q197 0 317 -170q111 -158 111 -389q0 -268 -113.5 -407t-306.5 -139q-106 0 -178 35.5t-156 123.5v-516h-123zM311 268q35 -59 121 -121q98 -70 180 -69q164 0 247 123t83 348q0 180 -76 301q-86 137 -235 137q-90 0 -170 -55 q-53 -37 -150 -139v-525z" />
<glyph unicode="q" d="M74 522q0 268 110.5 411.5t317.5 143.5q104 0 188 -41t154 -116l20 137h86v-1434h-123v514q-80 -84 -154.5 -120.5t-178.5 -36.5q-184 0 -302 152t-118 390zM197 545q0 -211 84 -339t245 -128q82 0 181 67q86 59 120 121v520q-68 94 -131 138q-82 55 -188 55 q-154 0 -232.5 -119.5t-78.5 -314.5z" />
<glyph unicode="r" horiz-adv-x="681" d="M160 0v1065h123v-203q47 100 130 161.5t181 61.5h55v-118h-55q-106 0 -205 -105q-106 -115 -106 -260v-602h-123z" />
<glyph unicode="s" horiz-adv-x="909" d="M51 195l90 63q72 -102 145.5 -141t184.5 -39q102 0 170 57.5t68 145.5q0 127 -162 186l-301 94q-164 74 -164 234q0 143 100 221q90 70 238 69q131 0 219 -48t147 -144l-94 -66q-59 80 -117 117q-68 43 -159 43q-96 0 -153.5 -46t-57.5 -140q0 -102 155 -156l308 -102 q164 -86 163 -262q0 -137 -107.5 -219t-260.5 -82q-127 0 -232.5 52t-179.5 163z" />
<glyph unicode="t" horiz-adv-x="569" d="M20 967v98h160v348h123v-348h234v-98h-234v-781q0 -109 109 -108q31 0 59.5 5t65.5 17v-102q-29 -4 -68 -11t-57 -7q-129 0 -180.5 43t-51.5 143v801h-160z" />
<glyph unicode="u" d="M168 338v727h123v-715q0 -139 49 -205.5t168 -66.5q102 0 207 84q23 18 133 119v784h123v-1065h-123v168q-96 -100 -166 -139q-86 -49 -199 -49q-162 0 -238.5 91t-76.5 267z" />
<glyph unicode="v" horiz-adv-x="909" d="M29 1065h131l291 -877l299 877h131l-367 -1065h-121z" />
<glyph unicode="w" horiz-adv-x="1366" d="M14 1065h125l234 -856l248 856h120l238 -856l244 856h127l-310 -1065h-120l-240 856l-242 -856h-127z" />
<glyph unicode="x" horiz-adv-x="909" d="M20 0l361 565l-320 500h148l246 -385l245 385h148l-320 -500l361 -565h-148l-286 449l-287 -449h-148z" />
<glyph unicode="y" horiz-adv-x="909" d="M25 1065h135l293 -866l301 866h131l-398 -1141q-57 -168 -122 -229q-76 -72 -218 -72q-72 0 -114 12v101q6 0 49 -7.5t74 -7.5q72 0 129 64q68 76 110 231z" />
<glyph unicode="z" horiz-adv-x="909" d="M51 0v78l615 889h-566v98h729v-78l-614 -889h631v-98h-795z" />
<glyph unicode="{" horiz-adv-x="681" d="M90 629v73q68 0 95.5 41t27.5 125v400q0 109 47 170t133 61h127v-74h-102q-43 0 -62.5 -26.5t-19.5 -108.5v-403q0 -100 -36 -150.5t-112 -68.5q74 -20 111 -72.5t37 -151.5v-403q0 -82 18.5 -108.5t63.5 -26.5h102v-74h-127q-180 0 -180 231v400q0 86 -26.5 126 t-96.5 40z" />
<glyph unicode="|" horiz-adv-x="454" d="M172 -20v1519h111v-1519h-111z" />
<glyph unicode="}" horiz-adv-x="681" d="M162 -94h102q43 0 62.5 26.5t19.5 108.5v403q0 100 36 150.5t112 69.5q-74 20 -111 72t-37 151v403q0 82 -18.5 108.5t-63.5 26.5h-102v74h127q180 0 180 -231v-400q0 -86 26.5 -126t96.5 -40v-73q-68 0 -95.5 -41t-27.5 -125v-400q0 -109 -47 -170t-133 -61h-127v74z " />
<glyph unicode="~" horiz-adv-x="1228" d="M104 485q45 76 99 117q76 55 178 55q43 0 93 -12t151 -53q125 -49 157.5 -59.5t69.5 -10.5q57 0 111 45q35 31 84 99l77 -86q-43 -78 -98 -119q-74 -53 -178 -53q-43 0 -93 12t-151 53q-125 49 -157.5 59.5t-69.5 10.5q-57 0 -111 -45q-35 -31 -84 -99z" />
<glyph unicode="&#xa1;" horiz-adv-x="454" d="M139 -414l37 1024h103l36 -1024h-176zM139 881v184h176v-184h-176z" />
<glyph unicode="&#xa2;" d="M131 532q0 270 123 411.5t336 141.5q61 0 121 -16l71 219h111l-86 -262q119 -76 172 -229l-113 -31q-41 92 -96 147l-268 -823q41 -12 88 -12q106 0 184 59q66 49 135 162l99 -47q-76 -127 -166 -193q-111 -80 -252 -79q-68 0 -119 14l-78 -240h-110l90 277 q-117 63 -179.5 194t-62.5 307zM254 532q0 -283 154 -395l272 834q-43 16 -90 16q-160 0 -244 -102q-92 -113 -92 -353z" />
<glyph unicode="&#xa3;" d="M31 686v98h215q0 51 -19 187q-10 76 -10 114q0 188 112.5 301t301.5 113q174 0 289.5 -101.5t146.5 -273.5l-119 -28q-29 143 -98 213q-78 80 -221 80q-145 0 -217 -82t-72 -228q0 -66 8 -134t25 -161h299v-98h-287l6 -108q0 -182 -74 -345q92 -59 168 -94 q106 -49 187 -49q127 0 197.5 60.5t111.5 216.5l115 -25q-35 -174 -136.5 -268t-267.5 -94q-133 0 -241 47q-53 23 -189 112q-49 -66 -103.5 -105.5t-125.5 -53.5v126q125 55 184 183q51 109 51 262q0 47 -4 81t-6 54h-227z" />
<glyph unicode="&#xa4;" d="M61 309l111 111q-55 63 -83 146t-28 173q0 92 26 172t85 148l-111 110l78 78l115 -112q133 113 315 112q182 0 316 -112l114 112l78 -78l-110 -110q55 -63 82.5 -146.5t27.5 -173.5q0 -92 -25.5 -172t-84.5 -147l110 -111l-78 -78l-114 113q-133 -113 -316 -113 q-182 0 -315 113l-115 -113zM172 739q0 -166 118 -287.5t279 -121.5q164 0 281 120.5t117 288.5q0 166 -118 288t-280 122q-164 0 -280.5 -121t-116.5 -289z" />
<glyph unicode="&#xa5;" d="M57 1479h136l364 -731l389 731h135l-307 -578h215v-98h-266l-94 -176v-25h360v-98h-360v-504h-135v504h-361v98h361v25l-91 176h-270v98h221z" />
<glyph unicode="&#xa6;" horiz-adv-x="454" d="M172 -20v573h111v-573h-111zM172 926v573h111v-573h-111z" />
<glyph unicode="&#xa7;" horiz-adv-x="1024" d="M127 811q0 96 68.5 152.5t171.5 56.5l4 4q-57 41 -90 96q-39 63 -39 142q0 104 74.5 170.5t195.5 66.5q102 0 181 -53t124 -148l-82 -51q-39 76 -95 119t-138 43q-72 0 -115 -41t-43 -123q0 -72 135 -198l254 -238q139 -147 139 -256q0 -121 -63 -178q-55 -51 -160 -51 q51 -59 82 -125t31 -136q0 -113 -88 -174q-78 -53 -199 -53q-96 0 -179 51.5t-120 139.5l86 55q27 -68 85.5 -112t129.5 -44q182 0 182 152q0 76 -137 219l-256 258q-139 156 -139 256zM229 831q0 -82 166 -262t236 -180q63 0 101 40t38 103q0 76 -159.5 249t-245.5 173 q-49 0 -92.5 -35t-43.5 -88z" />
<glyph unicode="&#xa8;" horiz-adv-x="454" d="M0 1204v193h135v-193h-135zM319 1204v193h136v-193h-136z" />
<glyph unicode="&#xa9;" horiz-adv-x="1638" d="M59 739q0 315 222.5 537.5t537.5 222.5q313 0 536.5 -223t223.5 -537q0 -315 -222 -537t-538 -222q-313 0 -536.5 223t-223.5 536zM182 739q0 -279 181.5 -468t455.5 -189q272 0 454.5 190.5t182.5 466.5q0 279 -181 468.5t-456 189.5q-272 0 -454.5 -191t-182.5 -467z M381 741q0 209 123 344.5t332 135.5q152 0 261 -84t128 -234h-111q-20 92 -95 153.5t-181 61.5q-156 0 -245 -106.5t-89 -268.5q0 -158 93 -270.5t245 -112.5q106 0 180 63.5t92 160.5h111q-35 -147 -137.5 -236.5t-245.5 -89.5q-207 0 -334 137t-127 346z" />
<glyph unicode="&#xaa;" horiz-adv-x="614" d="M25 1006q0 158 225 223l192 47v51q0 45 -28.5 67.5t-102.5 22.5q-117 0 -190 -100l-66 41q86 141 267 141q119 0 171 -46t52 -150v-320q0 -51 2 -67.5t10 -63.5h-90l-10 78q-55 -47 -109.5 -68.5t-130.5 -21.5q-84 0 -138 44t-54 122zM127 1008q0 -86 102 -86 q55 0 118 27.5t95 66.5v172l-190 -53q-125 -47 -125 -127z" />
<glyph unicode="&#xab;" horiz-adv-x="1024" d="M168 537l248 311h135l-254 -311l254 -320h-135zM471 537l250 311h135l-256 -311l256 -320h-135z" />
<glyph unicode="&#xac;" horiz-adv-x="1228" d="M82 682v111h1065v-521h-111v410h-954z" />
<glyph unicode="&#xad;" horiz-adv-x="1228" d="M82 477v111h1065v-111h-1065z" />
<glyph unicode="&#xae;" horiz-adv-x="1638" d="M59 739q0 315 222.5 537.5t537.5 222.5q313 0 536.5 -223t223.5 -537q0 -315 -222 -537t-538 -222q-313 0 -536.5 223t-223.5 536zM182 739q0 -279 181.5 -468t455.5 -189q272 0 454.5 190.5t182.5 466.5q0 279 -181 468.5t-456 189.5q-272 0 -454.5 -191t-182.5 -467z M537 287v903h346q150 0 221.5 -63.5t71.5 -186.5q0 -109 -66 -176q-55 -57 -143 -76l252 -401h-140l-245 401h-175v-401h-122zM659 791h142q127 0 170 16q82 31 82 135q0 86 -62 121q-45 25 -135 24h-197v-296z" />
<glyph unicode="&#xaf;" horiz-adv-x="454" d="M-76 1264v90h606v-90h-606z" />
<glyph unicode="&#xb0;" horiz-adv-x="819" d="M111 1200q0 123 86 211t213 88t213 -86t86 -213q0 -123 -86 -211t-213 -88t-213 86t-86 213zM205 1200q0 -90 57 -151.5t148 -61.5q90 0 147 61.5t57 151.5t-57 151.5t-147 61.5t-147.5 -61.5t-57.5 -151.5z" />
<glyph unicode="&#xb1;" horiz-adv-x="1228" d="M82 0v111h1065v-111h-1065zM82 575v111h477v379h111v-379h477v-111h-477v-378h-111v378h-477z" />
<glyph unicode="&#xb2;" horiz-adv-x="681" d="M33 598v68q0 63 39 112q55 70 213 180q152 100 207 164q47 55 47 119q0 74 -45 121t-123 47q-188 0 -230 -178l-94 14q23 119 107 186.5t213 67.5q127 0 202.5 -69.5t75.5 -196.5q0 -86 -53 -154q-16 -20 -234.5 -184t-218.5 -207h504v-90h-610z" />
<glyph unicode="&#xb3;" horiz-adv-x="681" d="M4 762l84 49q43 -76 95.5 -105.5t148.5 -29.5q106 0 162.5 45t56.5 125q0 178 -258 178h-88v90h71q119 0 181.5 38t62.5 122q0 63 -49 99t-125 36q-82 0 -128 -19.5t-93 -82.5l-74 47q55 78 125 111.5t162 33.5q119 0 197 -51q92 -59 92 -166q0 -82 -25 -125 q-31 -51 -110 -84q82 -29 123.5 -82t41.5 -143q0 -135 -89 -198.5t-240 -63.5q-242 0 -324 176z" />
<glyph unicode="&#xb4;" horiz-adv-x="454" d="M98 1184l228 282h157l-280 -282h-105z" />
<glyph unicode="&#xb5;" d="M168 -377v1442h123v-715q0 -139 49 -205.5t168 -66.5q102 0 207 84q23 18 133 119v784h123v-1065h-123v168q-96 -100 -166 -139q-86 -49 -199 -49q-121 0 -192 49v-406h-123z" />
<glyph unicode="&#xb6;" horiz-adv-x="1024" d="M33 1077q0 190 119.5 296t336.5 106h539v-90h-151v-1553h-103v1553h-215v-1553h-102v852q-178 0 -301 114.5t-123 274.5z" />
<glyph unicode="&#xb7;" horiz-adv-x="569" d="M182 532q0 41 31 72t72 31t71.5 -28.5t30.5 -74.5q0 -41 -30.5 -71.5t-71.5 -30.5t-72 28.5t-31 73.5z" />
<glyph unicode="&#xb8;" horiz-adv-x="454" d="M0 -385l29 74q45 -16 74.5 -24.5t46.5 -8.5q135 0 135 84q0 41 -27 62.5t-65 21.5q-31 0 -49.5 -4t-41.5 -15l-30 27l123 168h77l-88 -102l4 -4q25 12 64 12q76 0 118 -46t42 -126q0 -76 -74 -121q-63 -39 -141 -39q-55 0 -103.5 9t-93.5 32z" />
<glyph unicode="&#xb9;" horiz-adv-x="681" d="M131 1356v76l191 67h84v-811h157v-90h-413v90h149v709z" />
<glyph unicode="&#xba;" horiz-adv-x="614" d="M20 1169q0 145 62 230q74 100 225 100q150 0 223 -100q61 -84 62 -230q0 -143 -62 -229q-72 -100 -223 -100q-152 0 -225 100q-62 84 -62 229zM135 1169q0 -121 39 -178t133 -57t132 57.5t38 177.5q0 121 -35 174q-41 61 -135 62q-96 0 -134 -57.5t-38 -178.5z" />
<glyph unicode="&#xbb;" horiz-adv-x="1024" d="M168 217l256 311l-256 320h135l250 -320l-250 -311h-135zM473 217l254 311l-254 320h135l248 -320l-248 -311h-135z" />
<glyph unicode="&#xbc;" horiz-adv-x="1708" d="M180 1356v76l191 67h84v-811h157v-90h-413v90h149v709zM371 -20l909 1519h117l-905 -1519h-121zM946 213v98l402 578h137v-586h145v-90h-145v-213h-107v213h-432zM1061 303h317v463h-8z" />
<glyph unicode="&#xbd;" horiz-adv-x="1708" d="M180 1356v76l191 67h84v-811h157v-90h-413v90h149v709zM346 -20l909 1519h117l-905 -1519h-121zM1008 0v68q0 63 39 112q55 70 213 180q152 100 206 164q47 55 47 119q0 74 -45 121t-122 47q-188 0 -230 -178l-94 14q23 119 106.5 186.5t212.5 67.5q127 0 203 -69.5 t76 -196.5q0 -86 -53 -154q-16 -20 -234.5 -184t-218.5 -207h504v-90h-610z" />
<glyph unicode="&#xbe;" horiz-adv-x="1708" d="M61 762l84 49q43 -76 95.5 -105.5t148.5 -29.5q106 0 162.5 45t56.5 125q0 178 -258 178h-88v90h72q119 0 181.5 38t62.5 122q0 63 -49.5 99t-125.5 36q-82 0 -128 -19.5t-93 -82.5l-73 47q55 78 124.5 111.5t161.5 33.5q119 0 197 -51q92 -59 92 -166q0 -82 -25 -125 q-31 -51 -110 -84q82 -29 124 -82t42 -143q0 -135 -89 -198.5t-241 -63.5q-242 0 -324 176zM403 -20l910 1519h117l-906 -1519h-121zM946 213v98l402 578h137v-586h145v-90h-145v-213h-107v213h-432zM1061 303h317v463h-8z" />
<glyph unicode="&#xbf;" horiz-adv-x="796" d="M61 -100q0 113 91 223l167 180q90 106 91 213v98h110v-147q0 -100 -161.5 -280.5t-161.5 -313.5q0 -92 58 -144.5t146 -52.5q92 0 156 64q45 45 78 129l102 -51q-43 -119 -127 -185.5t-211 -66.5q-141 0 -235 84q-103 92 -103 250zM383 881v184h176v-184h-176z" />
<glyph unicode="&#xc0;" horiz-adv-x="1251" d="M51 0l473 1479h207l467 -1479h-143l-150 483h-559l-151 -483h-144zM381 594h493l-245 774zM364 1824h158l227 -282h-104z" />
<glyph unicode="&#xc1;" horiz-adv-x="1251" d="M51 0l473 1479h207l467 -1479h-143l-150 483h-559l-151 -483h-144zM381 594h493l-245 774zM491 1542l228 282h157l-280 -282h-105z" />
<glyph unicode="&#xc2;" horiz-adv-x="1251" d="M51 0l473 1479h207l467 -1479h-143l-150 483h-559l-151 -483h-144zM381 594h493l-245 774zM317 1542l234 282h139l233 -282h-135l-168 207l-168 -207h-135z" />
<glyph unicode="&#xc3;" horiz-adv-x="1251" d="M51 0l473 1479h207l467 -1479h-143l-150 483h-559l-151 -483h-144zM381 594h493l-245 774zM299 1564q6 78 55 138.5t125 60.5q35 0 57.5 -6t94.5 -39q51 -23 81.5 -34t59.5 -11q39 0 62.5 28.5t29.5 71.5h78q-16 -92 -51 -139q-45 -59 -131 -59q-23 0 -48.5 7t-99.5 40 q-51 23 -74 30q-39 14 -65 15q-43 0 -65.5 -29t-30.5 -74h-78z" />
<glyph unicode="&#xc4;" horiz-adv-x="1251" d="M51 0l473 1479h207l467 -1479h-143l-150 483h-559l-151 -483h-144zM381 594h493l-245 774zM393 1562v193h135v-193h-135zM712 1562v193h136v-193h-136z" />
<glyph unicode="&#xc5;" horiz-adv-x="1251" d="M51 0l473 1479h207l467 -1479h-143l-150 483h-559l-151 -483h-144zM381 594h493l-245 774zM825 1738q0 -86 -59.5 -145t-145.5 -59q-82 0 -143 59t-61 145t59 145.5t145 59.5q82 0 143.5 -59.5t61.5 -145.5zM485 1738q0 -57 39 -96t96 -39q55 0 95 40t40 95 q0 57 -38.5 96.5t-96.5 39.5q-55 0 -95 -40.5t-40 -95.5z" />
<glyph unicode="&#xc6;" horiz-adv-x="1933" d="M37 0l823 1479h952v-111h-696v-545h498v-110h-498v-602h735v-111h-870v483h-535l-258 -483h-151zM512 594h469v770h-35z" />
<glyph unicode="&#xc7;" horiz-adv-x="1251" d="M98 739q0 346 151.5 553t418.5 207q186 0 311 -123q111 -109 162 -305l-125 -27q-100 344 -361 345q-209 0 -319 -189q-102 -174 -103 -461q0 -291 103 -460q115 -188 334 -189q164 0 256 107q74 84 116 254l127 -23q-45 -213 -155 -324q-127 -125 -346 -124 q-266 0 -418 205.5t-152 553.5zM414 -385l29 74q45 -16 74.5 -24.5t46.5 -8.5q135 0 135 84q0 41 -27 62.5t-65 21.5q-31 0 -49.5 -4t-41.5 -15l-30 27l123 168h77l-88 -102l4 -4q25 12 64 12q76 0 118 -46t42 -126q0 -76 -74 -121q-63 -39 -141 -39q-55 0 -103.5 9 t-93.5 32z" />
<glyph unicode="&#xc8;" d="M205 0v1479h844v-111h-709v-545h510v-110h-510v-602h747v-111h-882zM374 1824h158l227 -282h-104z" />
<glyph unicode="&#xc9;" d="M205 0v1479h844v-111h-709v-545h510v-110h-510v-602h747v-111h-882zM501 1542l228 282h157l-280 -282h-105z" />
<glyph unicode="&#xca;" d="M205 0v1479h844v-111h-709v-545h510v-110h-510v-602h747v-111h-882zM327 1542l234 282h139l233 -282h-135l-168 207l-168 -207h-135z" />
<glyph unicode="&#xcb;" d="M205 0v1479h844v-111h-709v-545h510v-110h-510v-602h747v-111h-882zM403 1562v193h135v-193h-135zM722 1562v193h136v-193h-136z" />
<glyph unicode="&#xcc;" horiz-adv-x="569" d="M217 0v1479h135v-1479h-135zM14 1824h158l227 -282h-104z" />
<glyph unicode="&#xcd;" horiz-adv-x="569" d="M217 0v1479h135v-1479h-135zM141 1542l228 282h157l-280 -282h-105z" />
<glyph unicode="&#xce;" horiz-adv-x="569" d="M217 0v1479h135v-1479h-135zM-33 1542l234 282h139l233 -282h-135l-168 207l-168 -207h-135z" />
<glyph unicode="&#xcf;" horiz-adv-x="569" d="M217 0v1479h135v-1479h-135zM43 1562v193h135v-193h-135zM362 1562v193h136v-193h-136z" />
<glyph unicode="&#xd0;" horiz-adv-x="1366" d="M20 713v110h185v656h418q326 0 493 -222q150 -197 150 -518q0 -322 -150 -518q-168 -221 -493 -221h-418v713h-185zM340 111h287q246 0 374.5 162.5t128.5 465.5q0 301 -129 465t-374 164h-287v-545h401v-110h-401v-602z" />
<glyph unicode="&#xd1;" horiz-adv-x="1478" d="M205 0v1479h227l703 -1233l4 1233h135v-1479h-139l-791 1368l-4 -1368h-135zM418 1564q6 78 55 138.5t125 60.5q35 0 57.5 -6t94.5 -39q51 -23 81.5 -34t59.5 -11q39 0 62.5 28.5t29.5 71.5h78q-16 -92 -51 -139q-45 -59 -131 -59q-23 0 -48.5 7t-99.5 40q-51 23 -74 30 q-39 14 -65 15q-43 0 -65.5 -29t-30.5 -74h-78z" />
<glyph unicode="&#xd2;" horiz-adv-x="1366" d="M98 739q0 336 152 543q160 217 432 217t428 -212t156 -548t-152 -542q-160 -217 -432 -217t-428 211.5t-156 547.5zM233 739q0 -311 120 -480t329 -169q207 0 327.5 171t120.5 478q0 311 -119.5 480.5t-328.5 169.5q-207 0 -328 -171.5t-121 -478.5zM428 1824h158 l227 -282h-104z" />
<glyph unicode="&#xd3;" horiz-adv-x="1366" d="M98 739q0 336 152 543q160 217 432 217t428 -212t156 -548t-152 -542q-160 -217 -432 -217t-428 211.5t-156 547.5zM233 739q0 -311 120 -480t329 -169q207 0 327.5 171t120.5 478q0 311 -119.5 480.5t-328.5 169.5q-207 0 -328 -171.5t-121 -478.5zM555 1542l228 282 h157l-280 -282h-105z" />
<glyph unicode="&#xd4;" horiz-adv-x="1366" d="M98 739q0 336 152 543q160 217 432 217t428 -212t156 -548t-152 -542q-160 -217 -432 -217t-428 211.5t-156 547.5zM233 739q0 -311 120 -480t329 -169q207 0 327.5 171t120.5 478q0 311 -119.5 480.5t-328.5 169.5q-207 0 -328 -171.5t-121 -478.5zM381 1542l234 282 h139l233 -282h-135l-168 207l-168 -207h-135z" />
<glyph unicode="&#xd5;" horiz-adv-x="1366" d="M98 739q0 336 152 543q160 217 432 217t428 -212t156 -548t-152 -542q-160 -217 -432 -217t-428 211.5t-156 547.5zM233 739q0 -311 120 -480t329 -169q207 0 327.5 171t120.5 478q0 311 -119.5 480.5t-328.5 169.5q-207 0 -328 -171.5t-121 -478.5zM363 1564 q6 78 55 138.5t125 60.5q35 0 57.5 -6t94.5 -39q51 -23 81.5 -34t59.5 -11q39 0 62.5 28.5t29.5 71.5h78q-16 -92 -51 -139q-45 -59 -131 -59q-23 0 -48.5 7t-99.5 40q-51 23 -74 30q-39 14 -65 15q-43 0 -65.5 -29t-30.5 -74h-78z" />
<glyph unicode="&#xd6;" horiz-adv-x="1366" d="M98 739q0 336 152 543q160 217 432 217t428 -212t156 -548t-152 -542q-160 -217 -432 -217t-428 211.5t-156 547.5zM233 739q0 -311 120 -480t329 -169q207 0 327.5 171t120.5 478q0 311 -119.5 480.5t-328.5 169.5q-207 0 -328 -171.5t-121 -478.5zM457 1562v193h135 v-193h-135zM776 1562v193h136v-193h-136z" />
<glyph unicode="&#xd7;" horiz-adv-x="1228" d="M82 78l455 454l-455 455l78 78l454 -455l455 455l78 -78l-455 -455l455 -454l-78 -78l-455 455l-454 -455z" />
<glyph unicode="&#xd8;" horiz-adv-x="1366" d="M84 -98l178 280q-80 102 -122 243.5t-42 313.5q0 336 152 543q160 217 432 217q203 0 344 -123l127 201h129l-180 -281q164 -205 164 -557q0 -336 -152 -542q-160 -217 -432 -217q-104 0 -187 29.5t-155 90.5l-127 -198h-129zM233 739q0 -279 101 -444l627 979 q-109 115 -279 115q-207 0 -328 -171.5t-121 -478.5zM406 203q106 -113 276 -113q207 0 327.5 171t120.5 478q0 283 -100 443z" />
<glyph unicode="&#xd9;" horiz-adv-x="1478" d="M205 483v996h135v-1008q0 -207 100 -297q94 -84 299 -84q203 0 297 84q102 90 103 297v1008h135v-996q0 -504 -535 -503q-534 -1 -534 503zM473 1824h158l227 -282h-104z" />
<glyph unicode="&#xda;" horiz-adv-x="1478" d="M205 483v996h135v-1008q0 -207 100 -297q94 -84 299 -84q203 0 297 84q102 90 103 297v1008h135v-996q0 -504 -535 -503q-534 -1 -534 503zM600 1542l228 282h157l-280 -282h-105z" />
<glyph unicode="&#xdb;" horiz-adv-x="1478" d="M205 483v996h135v-1008q0 -207 100 -297q94 -84 299 -84q203 0 297 84q102 90 103 297v1008h135v-996q0 -504 -535 -503q-534 -1 -534 503zM426 1542l234 282h139l233 -282h-135l-168 207l-168 -207h-135z" />
<glyph unicode="&#xdc;" horiz-adv-x="1478" d="M205 483v996h135v-1008q0 -207 100 -297q94 -84 299 -84q203 0 297 84q102 90 103 297v1008h135v-996q0 -504 -535 -503q-534 -1 -534 503zM502 1562v193h135v-193h-135zM821 1562v193h136v-193h-136z" />
<glyph unicode="&#xdd;" d="M41 1479h152l364 -731l389 731h152l-469 -852v-627h-135v627zM440 1542l228 282h157l-280 -282h-105z" />
<glyph unicode="&#xde;" horiz-adv-x="1251" d="M205 0v1479h135v-308h311q254 0 381 -112q119 -106 119 -299q0 -195 -117 -299q-127 -113 -383 -113h-311v-348h-135zM340 459h311q188 0 276.5 75.5t88.5 225.5q0 301 -365 301h-311v-602z" />
<glyph unicode="&#xdf;" horiz-adv-x="1024" d="M156 0v1092q0 180 91 283.5t269 103.5q154 0 253 -103.5t99 -261.5q0 -217 -188 -307q137 -43 209 -145.5t72 -249.5q0 -201 -91.5 -316.5t-259.5 -115.5q-45 0 -98 13t-90 34l43 92q33 -16 75 -28.5t76 -12.5q104 0 163 85t59 234q0 180 -92.5 260t-280.5 80v99 q137 0 208.5 67.5t71.5 214.5q0 125 -62 193.5t-185 68.5q-119 0 -174 -90q-45 -72 -45 -192v-1098h-123z" />
<glyph unicode="&#xe0;" horiz-adv-x="1024" d="M53 258q0 139 75 218t232 130q104 35 375 94v74q0 109 -54 161t-189 52q-94 0 -172 -49t-138 -143l-82 49q68 125 165 183t231 58q182 0 269 -78.5t87 -254.5v-557q0 -61 2 -94t14 -101h-118l-17 129q-102 -80 -186 -114.5t-201 -34.5q-129 0 -211 73.5t-82 204.5z M176 260q0 -86 52.5 -134t138.5 -48t184 47t178 129v348q-338 -74 -459 -160q-94 -67 -94 -182zM256 1466h158l227 -282h-104z" />
<glyph unicode="&#xe1;" horiz-adv-x="1024" d="M53 258q0 139 75 218t232 130q104 35 375 94v74q0 109 -54 161t-189 52q-94 0 -172 -49t-138 -143l-82 49q68 125 165 183t231 58q182 0 269 -78.5t87 -254.5v-557q0 -61 2 -94t14 -101h-118l-17 129q-102 -80 -186 -114.5t-201 -34.5q-129 0 -211 73.5t-82 204.5z M176 260q0 -86 52.5 -134t138.5 -48t184 47t178 129v348q-338 -74 -459 -160q-94 -67 -94 -182zM383 1184l228 282h157l-280 -282h-105z" />
<glyph unicode="&#xe2;" horiz-adv-x="1024" d="M53 258q0 139 75 218t232 130q104 35 375 94v74q0 109 -54 161t-189 52q-94 0 -172 -49t-138 -143l-82 49q68 125 165 183t231 58q182 0 269 -78.5t87 -254.5v-557q0 -61 2 -94t14 -101h-118l-17 129q-102 -80 -186 -114.5t-201 -34.5q-129 0 -211 73.5t-82 204.5z M176 260q0 -86 52.5 -134t138.5 -48t184 47t178 129v348q-338 -74 -459 -160q-94 -67 -94 -182zM209 1184l234 282h139l233 -282h-135l-168 207l-168 -207h-135z" />
<glyph unicode="&#xe3;" horiz-adv-x="1024" d="M53 258q0 139 75 218t232 130q104 35 375 94v74q0 109 -54 161t-189 52q-94 0 -172 -49t-138 -143l-82 49q68 125 165 183t231 58q182 0 269 -78.5t87 -254.5v-557q0 -61 2 -94t14 -101h-118l-17 129q-102 -80 -186 -114.5t-201 -34.5q-129 0 -211 73.5t-82 204.5z M176 260q0 -86 52.5 -134t138.5 -48t184 47t178 129v348q-338 -74 -459 -160q-94 -67 -94 -182zM191 1206q6 78 55 138.5t125 60.5q35 0 57.5 -6t94.5 -39q51 -23 81.5 -34t59.5 -11q39 0 62.5 28.5t29.5 71.5h78q-16 -92 -51 -139q-45 -59 -131 -59q-23 0 -48.5 7t-99.5 40 q-51 23 -74 30q-39 14 -65 15q-43 0 -65.5 -29t-30.5 -74h-78z" />
<glyph unicode="&#xe4;" horiz-adv-x="1024" d="M53 258q0 139 75 218t232 130q104 35 375 94v74q0 109 -54 161t-189 52q-94 0 -172 -49t-138 -143l-82 49q68 125 165 183t231 58q182 0 269 -78.5t87 -254.5v-557q0 -61 2 -94t14 -101h-118l-17 129q-102 -80 -186 -114.5t-201 -34.5q-129 0 -211 73.5t-82 204.5z M176 260q0 -86 52.5 -134t138.5 -48t184 47t178 129v348q-338 -74 -459 -160q-94 -67 -94 -182zM285 1204v193h135v-193h-135zM604 1204v193h136v-193h-136z" />
<glyph unicode="&#xe5;" horiz-adv-x="1024" d="M53 258q0 139 75 218t232 130q104 35 375 94v74q0 109 -54 161t-189 52q-94 0 -172 -49t-138 -143l-82 49q68 125 165 183t231 58q182 0 269 -78.5t87 -254.5v-557q0 -61 2 -94t14 -101h-118l-17 129q-102 -80 -186 -114.5t-201 -34.5q-129 0 -211 73.5t-82 204.5z M176 260q0 -86 52.5 -134t138.5 -48t184 47t178 129v348q-338 -74 -459 -160q-94 -67 -94 -182zM717 1380q0 -86 -59.5 -145t-145.5 -59q-82 0 -143 59t-61 145t59 145.5t145 59.5q82 0 143.5 -59.5t61.5 -145.5zM377 1380q0 -57 39 -96t96 -39q55 0 95 40t40 95 q0 57 -38.5 96.5t-96.5 39.5q-55 0 -95 -40.5t-40 -95.5z" />
<glyph unicode="&#xe6;" horiz-adv-x="1593" d="M53 258q0 139 76 221q68 74 219 127q94 33 344 94v74q0 90 -51 148q-59 66 -174 65q-205 0 -281 -196l-90 53q51 125 141.5 183t221.5 58q113 0 186 -34q92 -43 137 -140q121 174 324 174q207 0 307 -153q94 -143 94 -404h-692q0 -201 64 -315q76 -135 229 -135 q104 0 167.5 44t143.5 171l101 -53q-88 -145 -179.5 -202.5t-242.5 -57.5q-106 0 -190.5 46t-149.5 134q-82 -100 -191 -144q-92 -37 -221 -36q-129 0 -211 73.5t-82 204.5zM176 260q0 -86 52.5 -134t138.5 -48q88 0 181 49t144 127v348q-313 -74 -426 -160 q-90 -67 -90 -182zM815 627h569q-20 176 -81 262q-70 98 -201 98q-135 0 -211 -101t-76 -259z" />
<glyph unicode="&#xe7;" horiz-adv-x="1024" d="M74 532q0 270 122.5 411.5t335.5 141.5q145 0 242.5 -75.5t147.5 -212.5l-113 -31q-47 104 -104 156q-74 66 -173 65q-160 0 -243 -102q-92 -113 -92 -353q0 -207 89 -330.5t246 -123.5q106 0 185 59q66 49 135 162l98 -47q-76 -127 -166 -193q-111 -80 -252 -79 q-219 0 -338.5 151t-119.5 401zM285 -385l29 74q45 -16 74.5 -24.5t46.5 -8.5q135 0 135 84q0 41 -27 62.5t-65 21.5q-31 0 -49.5 -4t-41.5 -15l-30 27l123 168h77l-88 -102l4 -4q25 12 64 12q76 0 118 -46t42 -126q0 -76 -74 -121q-63 -39 -141 -39q-55 0 -103.5 9 t-93.5 32z" />
<glyph unicode="&#xe8;" horiz-adv-x="1024" d="M74 532q0 250 117.5 401.5t320.5 151.5q211 0 322 -153q104 -145 104 -404h-741q0 -197 79 -315q90 -135 263 -135q104 0 167.5 44t143.5 171l100 -53q-88 -145 -179 -202.5t-243 -57.5q-215 0 -331 135q-123 141 -123 417zM197 627h618q-18 170 -94 265t-213 95 q-147 0 -238 -127q-73 -104 -73 -233zM256 1466h158l227 -282h-104z" />
<glyph unicode="&#xe9;" horiz-adv-x="1024" d="M74 532q0 250 117.5 401.5t320.5 151.5q211 0 322 -153q104 -145 104 -404h-741q0 -197 79 -315q90 -135 263 -135q104 0 167.5 44t143.5 171l100 -53q-88 -145 -179 -202.5t-243 -57.5q-215 0 -331 135q-123 141 -123 417zM197 627h618q-18 170 -94 265t-213 95 q-147 0 -238 -127q-73 -104 -73 -233zM383 1184l228 282h157l-280 -282h-105z" />
<glyph unicode="&#xea;" horiz-adv-x="1024" d="M74 532q0 250 117.5 401.5t320.5 151.5q211 0 322 -153q104 -145 104 -404h-741q0 -197 79 -315q90 -135 263 -135q104 0 167.5 44t143.5 171l100 -53q-88 -145 -179 -202.5t-243 -57.5q-215 0 -331 135q-123 141 -123 417zM197 627h618q-18 170 -94 265t-213 95 q-147 0 -238 -127q-73 -104 -73 -233zM209 1184l234 282h139l233 -282h-135l-168 207l-168 -207h-135z" />
<glyph unicode="&#xeb;" horiz-adv-x="1024" d="M74 532q0 250 117.5 401.5t320.5 151.5q211 0 322 -153q104 -145 104 -404h-741q0 -197 79 -315q90 -135 263 -135q104 0 167.5 44t143.5 171l100 -53q-88 -145 -179 -202.5t-243 -57.5q-215 0 -331 135q-123 141 -123 417zM197 627h618q-18 170 -94 265t-213 95 q-147 0 -238 -127q-73 -104 -73 -233zM285 1204v193h135v-193h-135zM604 1204v193h136v-193h-136z" />
<glyph unicode="&#xec;" horiz-adv-x="454" d="M289 0h-123v1065h123v-1065zM-29 1466h158l227 -282h-104z" />
<glyph unicode="&#xed;" horiz-adv-x="454" d="M289 0h-123v1065h123v-1065zM98 1184l228 282h157l-280 -282h-105z" />
<glyph unicode="&#xee;" horiz-adv-x="454" d="M289 0h-123v1065h123v-1065zM-76 1184l234 282h139l233 -282h-135l-168 207l-168 -207h-135z" />
<glyph unicode="&#xef;" horiz-adv-x="454" d="M289 0h-123v1065h123v-1065zM0 1204v193h135v-193h-135zM319 1204v193h136v-193h-136z" />
<glyph unicode="&#xf0;" horiz-adv-x="1024" d="M74 532q0 244 94 386q111 168 344 167q119 0 203 -45l4 4q-57 106 -139 199l-209 -108l-58 82l191 100q-68 61 -148 108l109 54q84 -55 143 -109l209 109l57 -82l-190 -101q145 -156 211 -368q55 -178 55 -396q0 -244 -94 -385q-111 -168 -344 -167q-231 0 -344 167 q-94 141 -94 385zM197 532q0 -223 75.5 -338.5t239.5 -115.5q160 0 237.5 116.5t77.5 337.5q0 223 -75.5 339t-239.5 116q-160 0 -237.5 -117t-77.5 -338z" />
<glyph unicode="&#xf1;" d="M168 0v1065h123v-168q96 100 166 139q86 49 198 49q162 0 239 -91t77 -267v-727h-123v715q0 139 -49 205.5t-168 66.5q-102 0 -207 -84q-23 -18 -133 -119v-784h-123zM234 1206q6 78 55 138.5t125 60.5q35 0 57.5 -6t94.5 -39q51 -23 81.5 -34t59.5 -11q39 0 62.5 28.5 t29.5 71.5h78q-16 -92 -51 -139q-45 -59 -131 -59q-23 0 -48.5 7t-99.5 40q-51 23 -74 30q-39 14 -65 15q-43 0 -65.5 -29t-30.5 -74h-78z" />
<glyph unicode="&#xf2;" horiz-adv-x="1024" d="M74 532q0 244 94 386q111 168 344 167q231 0 344 -167q94 -141 94 -386q0 -244 -94 -385q-111 -168 -344 -167q-231 0 -344 167q-94 141 -94 385zM197 532q0 -223 75.5 -338.5t239.5 -115.5q160 0 237.5 116.5t77.5 337.5q0 223 -75.5 339t-239.5 116q-160 0 -237.5 -117 t-77.5 -338zM245 1466h158l227 -282h-104z" />
<glyph unicode="&#xf3;" horiz-adv-x="1024" d="M74 532q0 244 94 386q111 168 344 167q231 0 344 -167q94 -141 94 -386q0 -244 -94 -385q-111 -168 -344 -167q-231 0 -344 167q-94 141 -94 385zM197 532q0 -223 75.5 -338.5t239.5 -115.5q160 0 237.5 116.5t77.5 337.5q0 223 -75.5 339t-239.5 116q-160 0 -237.5 -117 t-77.5 -338zM372 1184l228 282h157l-280 -282h-105z" />
<glyph unicode="&#xf4;" horiz-adv-x="1024" d="M74 532q0 244 94 386q111 168 344 167q231 0 344 -167q94 -141 94 -386q0 -244 -94 -385q-111 -168 -344 -167q-231 0 -344 167q-94 141 -94 385zM197 532q0 -223 75.5 -338.5t239.5 -115.5q160 0 237.5 116.5t77.5 337.5q0 223 -75.5 339t-239.5 116q-160 0 -237.5 -117 t-77.5 -338zM198 1184l234 282h139l233 -282h-135l-168 207l-168 -207h-135z" />
<glyph unicode="&#xf5;" horiz-adv-x="1024" d="M74 532q0 244 94 386q111 168 344 167q231 0 344 -167q94 -141 94 -386q0 -244 -94 -385q-111 -168 -344 -167q-231 0 -344 167q-94 141 -94 385zM197 532q0 -223 75.5 -338.5t239.5 -115.5q160 0 237.5 116.5t77.5 337.5q0 223 -75.5 339t-239.5 116q-160 0 -237.5 -117 t-77.5 -338zM180 1206q6 78 55 138.5t125 60.5q35 0 57.5 -6t94.5 -39q51 -23 81.5 -34t59.5 -11q39 0 62.5 28.5t29.5 71.5h78q-16 -92 -51 -139q-45 -59 -131 -59q-23 0 -48.5 7t-99.5 40q-51 23 -74 30q-39 14 -65 15q-43 0 -65.5 -29t-30.5 -74h-78z" />
<glyph unicode="&#xf6;" horiz-adv-x="1024" d="M74 532q0 244 94 386q111 168 344 167q231 0 344 -167q94 -141 94 -386q0 -244 -94 -385q-111 -168 -344 -167q-231 0 -344 167q-94 141 -94 385zM197 532q0 -223 75.5 -338.5t239.5 -115.5q160 0 237.5 116.5t77.5 337.5q0 223 -75.5 339t-239.5 116q-160 0 -237.5 -117 t-77.5 -338zM274 1204v193h135v-193h-135zM593 1204v193h136v-193h-136z" />
<glyph unicode="&#xf7;" horiz-adv-x="1228" d="M82 477v111h1065v-111h-1065zM498 88q0 47 34.5 82t81.5 35t82 -35t35 -82t-34.5 -82t-82.5 -35q-47 0 -81.5 35t-34.5 82zM498 977q0 47 34.5 82t81.5 35t82 -35t35 -82t-34.5 -82t-82.5 -35q-47 0 -81.5 35t-34.5 82z" />
<glyph unicode="&#xf8;" horiz-adv-x="1024" d="M29 -164l168 275q-63 74 -93 184.5t-30 236.5q0 244 94 386q111 168 344 167q145 0 242 -67l129 211h116l-170 -277q61 -72 91 -183.5t30 -236.5q0 -244 -94 -385q-111 -168 -344 -167q-145 0 -240 67l-129 -211h-114zM197 532q0 -205 65 -315l436 709q-74 61 -186 61 q-160 0 -237.5 -117t-77.5 -338zM328 137q72 -59 184 -59q160 0 237.5 116.5t77.5 337.5q0 207 -63 314z" />
<glyph unicode="&#xf9;" d="M168 338v727h123v-715q0 -139 49 -205.5t168 -66.5q102 0 207 84q23 18 133 119v784h123v-1065h-123v168q-96 -100 -166 -139q-86 -49 -199 -49q-162 0 -238.5 91t-76.5 267zM313 1466h158l227 -282h-104z" />
<glyph unicode="&#xfa;" d="M168 338v727h123v-715q0 -139 49 -205.5t168 -66.5q102 0 207 84q23 18 133 119v784h123v-1065h-123v168q-96 -100 -166 -139q-86 -49 -199 -49q-162 0 -238.5 91t-76.5 267zM440 1184l228 282h157l-280 -282h-105z" />
<glyph unicode="&#xfb;" d="M168 338v727h123v-715q0 -139 49 -205.5t168 -66.5q102 0 207 84q23 18 133 119v784h123v-1065h-123v168q-96 -100 -166 -139q-86 -49 -199 -49q-162 0 -238.5 91t-76.5 267zM266 1184l234 282h139l233 -282h-135l-168 207l-168 -207h-135z" />
<glyph unicode="&#xfc;" d="M168 338v727h123v-715q0 -139 49 -205.5t168 -66.5q102 0 207 84q23 18 133 119v784h123v-1065h-123v168q-96 -100 -166 -139q-86 -49 -199 -49q-162 0 -238.5 91t-76.5 267zM342 1204v193h135v-193h-135zM661 1204v193h136v-193h-136z" />
<glyph unicode="&#xfd;" horiz-adv-x="909" d="M25 1065h135l293 -866l301 866h131l-398 -1141q-57 -168 -122 -229q-76 -72 -218 -72q-72 0 -114 12v101q6 0 49 -7.5t74 -7.5q72 0 129 64q68 76 110 231zM325 1184l228 282h157l-280 -282h-105z" />
<glyph unicode="&#xfe;" d="M188 -377v1856h123v-578q133 184 326 184q197 0 317 -170q111 -158 111 -389q0 -268 -113.5 -407t-306.5 -139q-106 0 -178 35.5t-156 123.5v-516h-123zM311 268q35 -59 121 -121q98 -70 180 -69q164 0 247 123t83 348q0 180 -76 301q-86 137 -235 137q-90 0 -170 -55 q-53 -37 -150 -139v-525z" />
<glyph unicode="&#xff;" horiz-adv-x="909" d="M25 1065h135l293 -866l301 866h131l-398 -1141q-57 -168 -122 -229q-76 -72 -218 -72q-72 0 -114 12v101q6 0 49 -7.5t74 -7.5q72 0 129 64q68 76 110 231zM227 1204v193h135v-193h-135zM546 1204v193h136v-193h-136z" />
<glyph unicode="&#x131;" horiz-adv-x="454" d="M289 0h-123v1065h123v-1065z" />
<glyph unicode="&#x152;" horiz-adv-x="2048" d="M98 739q0 328 166 537q178 223 494 223q55 0 143 -6q205 -14 229 -14h797v-111h-698v-545h500v-110h-500v-602h737v-111h-827q-66 0 -152 -6q-203 -14 -229 -14q-340 0 -506 210q-154 195 -154 549zM233 739q0 -322 136.5 -485.5t433.5 -163.5q291 0 291 205v889 q0 205 -291 205q-281 0 -425.5 -175.5t-144.5 -474.5z" />
<glyph unicode="&#x153;" horiz-adv-x="1705" d="M74 532q0 244 92 386q111 168 338 167q131 0 223 -65q84 -59 129 -166q41 98 117 158q96 74 235 73q205 0 312 -153q100 -145 100 -404h-698q0 -203 63 -315q76 -135 236 -135q104 0 167.5 44t143.5 171l100 -53q-88 -145 -179 -202.5t-243 -57.5q-246 0 -358 233 q-47 -109 -125 -166q-90 -68 -223 -67q-225 0 -336 167q-94 143 -94 385zM197 532q0 -221 74.5 -337.5t232.5 -116.5q145 0 220 117.5t75 336.5q0 221 -73 338t-222 117q-154 0 -230.5 -118t-76.5 -337zM922 627h575q-18 172 -86 262q-74 98 -205 98q-139 0 -211.5 -100 t-72.5 -260z" />
<glyph unicode="&#x178;" d="M41 1479h152l364 -731l389 731h152l-469 -852v-627h-135v627zM342 1562v193h135v-193h-135zM661 1562v193h136v-193h-136z" />
<glyph unicode="&#x2c6;" horiz-adv-x="454" d="M-76 1184l234 282h139l233 -282h-135l-168 207l-168 -207h-135z" />
<glyph unicode="&#x2da;" horiz-adv-x="454" d="M432 1380q0 -86 -59.5 -145t-145.5 -59q-82 0 -143 59t-61 145t59 145.5t145 59.5q82 0 143.5 -59.5t61.5 -145.5zM92 1380q0 -57 39 -96t96 -39q55 0 95 40t40 95q0 57 -38.5 96.5t-96.5 39.5q-55 0 -95 -40.5t-40 -95.5z" />
<glyph unicode="&#x2dc;" horiz-adv-x="454" d="M-94 1206q6 78 55 138.5t125 60.5q35 0 57.5 -6t94.5 -39q51 -23 81.5 -34t59.5 -11q39 0 62.5 28.5t29.5 71.5h78q-16 -92 -51 -139q-45 -59 -131 -59q-23 0 -48.5 7t-99.5 40q-51 23 -74 30q-39 14 -65 15q-43 0 -65.5 -29t-30.5 -74h-78z" />
<glyph unicode="&#x2000;" horiz-adv-x="970" />
<glyph unicode="&#x2001;" horiz-adv-x="1943" />
<glyph unicode="&#x2002;" horiz-adv-x="970" />
<glyph unicode="&#x2003;" horiz-adv-x="1943" />
<glyph unicode="&#x2004;" horiz-adv-x="647" />
<glyph unicode="&#x2005;" horiz-adv-x="485" />
<glyph unicode="&#x2006;" horiz-adv-x="323" />
<glyph unicode="&#x2007;" horiz-adv-x="323" />
<glyph unicode="&#x2008;" horiz-adv-x="241" />
<glyph unicode="&#x2009;" horiz-adv-x="387" />
<glyph unicode="&#x200a;" horiz-adv-x="106" />
<glyph unicode="&#x2010;" horiz-adv-x="681" d="M86 477v111h510v-111h-510z" />
<glyph unicode="&#x2011;" horiz-adv-x="681" d="M86 477v111h510v-111h-510z" />
<glyph unicode="&#x2013;" horiz-adv-x="1024" d="M0 487v91h1024v-91h-1024z" />
<glyph unicode="&#x2014;" horiz-adv-x="2048" d="M0 487v91h2048v-91h-2048z" />
<glyph unicode="&#x2018;" horiz-adv-x="454" d="M123 1008v184l129 307h80l-119 -307h86v-184h-176z" />
<glyph unicode="&#x2019;" horiz-adv-x="454" d="M123 987l119 307h-86v185h176v-185l-129 -307h-80z" />
<glyph unicode="&#x201a;" horiz-adv-x="454" d="M123 -307l119 307h-86v184h176v-184l-129 -307h-80z" />
<glyph unicode="&#x201c;" horiz-adv-x="909" d="M199 1008v184l129 307h80l-119 -307h86v-184h-176zM541 1008v184l129 307h80l-119 -307h86v-184h-176z" />
<glyph unicode="&#x201d;" horiz-adv-x="909" d="M160 987l119 307h-86v185h176v-185l-129 -307h-80zM502 987l119 307h-86v185h176v-185l-129 -307h-80z" />
<glyph unicode="&#x201e;" horiz-adv-x="909" d="M160 -307l119 307h-86v184h176v-184l-129 -307h-80zM502 -307l119 307h-86v184h176v-184l-129 -307h-80z" />
<glyph unicode="&#x2022;" horiz-adv-x="1024" d="M141 739q0 154 107.5 261.5t261.5 107.5t262.5 -106.5t108.5 -262.5q0 -154 -108.5 -262t-262.5 -108q-152 0 -260.5 108t-108.5 262z" />
<glyph unicode="&#x2026;" horiz-adv-x="2048" d="M254 0v184h176v-184h-176zM936 0v184h176v-184h-176zM1618 0v184h176v-184h-176z" />
<glyph unicode="&#x202f;" horiz-adv-x="387" />
<glyph unicode="&#x2039;" horiz-adv-x="681" d="M131 537l248 311h135l-254 -311l254 -320h-135z" />
<glyph unicode="&#x203a;" horiz-adv-x="681" d="M168 217l254 311l-254 320h135l248 -320l-248 -311h-135z" />
<glyph unicode="&#x205f;" horiz-adv-x="485" />
<glyph unicode="&#x2122;" horiz-adv-x="2027" d="M111 1389v90h655v-90h-272v-754h-103v754h-280zM918 635v844h174l272 -672l264 672h174v-844h-102v754l-309 -754h-62l-305 754l-4 -754h-102z" />
</font>
</defs>
</svg>
