<?xml version="1.0" standalone="no"?>
<!DOCTYPE svg PUBLIC "-//W3C//DTD SVG 1.1//EN" "http://www.w3.org/Graphics/SVG/1.1/DTD/svg11.dtd" >
<svg xmlns="http://www.w3.org/2000/svg">
<metadata>
This is a custom SVG webfont generated by Font Squirrel.
Copyright   : Copyright c 1989 1990 Adobe Systems Incorporated  All Rights ReservedTrade Gothic is a trademark of Linotype AG andor its subsidiaries
</metadata>
<defs>
<font id="webfontrBk0qAaJ" horiz-adv-x="1138" >
<font-face units-per-em="2048" ascent="1638" descent="-410" />
<missing-glyph horiz-adv-x="569" />
<glyph unicode=" "  horiz-adv-x="569" />
<glyph unicode="&#x09;" horiz-adv-x="569" />
<glyph unicode="&#xa0;" horiz-adv-x="569" />
<glyph unicode="!" horiz-adv-x="454" d="M139 0l41 184h176l-41 -184h-176zM276 455l191 1024h176l-264 -1024h-103z" />
<glyph unicode="&#x22;" horiz-adv-x="681" d="M401 1016l103 463h102l-102 -463h-103zM629 1016l102 463h103l-103 -463h-102z" />
<glyph unicode="#" d="M158 481l22 99h254l119 321h-242l21 98h254l174 480h102l-174 -480h301l174 480h103l-174 -480h217l-21 -98h-231l-117 -321h217l-22 -99h-232l-174 -481h-100l174 481h-303l-174 -481h-101l174 481h-241zM537 580h301l118 321h-303z" />
<glyph unicode="$" d="M125 299l113 68q27 -117 102 -189q84 -80 205 -80l133 609q-147 45 -225 106q-104 84 -105 209v32q0 13 8 48q39 178 176.5 277.5t317.5 99.5l33 143h98l-33 -143q131 0 228 -78q86 -70 106 -164l-104 -70q-29 90 -91.5 144.5t-160.5 66.5l-127 -577q207 -66 288 -154 q70 -76 70 -180v-37q-6 -29 -8 -43q-39 -180 -199 -289q-145 -98 -329 -98l-54 -244h-98l53 244q-150 0 -256 80t-141 219zM463 1053q0 -94 74 -150q55 -41 170 -74l120 551q-125 0 -228 -73.5t-130 -194.5q-6 -30 -6 -59zM643 98q131 0 250 84t145 209q6 29 6 51 q0 109 -133 179q-49 27 -139 59z" />
<glyph unicode="%" horiz-adv-x="1820" d="M414 1071v29q0 12 8 43q31 139 149.5 237.5t259.5 98.5q119 0 195 -76t76 -189v-34q-6 -25 -8 -37q-31 -139 -152 -237.5t-260 -98.5q-119 0 -193.5 74.5t-74.5 189.5zM420 -20l1204 1519h109l-1207 -1519h-106zM514 1090q0 -78 53.5 -131.5t137.5 -53.5q98 0 184 69.5 t106 168.5q6 29 6 53q0 80 -54 132t-138 52q-98 0 -183 -69.5t-106 -167.5q-6 -28 -6 -53zM1047 264v29q0 12 8 43q31 139 151.5 237.5t259.5 98.5q119 0 194 -75t75 -189v-35l-9 -37q-31 -139 -149.5 -237.5t-259.5 -98.5q-119 0 -194.5 75.5t-75.5 188.5zM1147 283 q0 -80 54 -132.5t138 -52.5q98 0 183.5 70t105.5 168q6 29 6 55q0 80 -53 131t-137 51q-98 0 -183 -69.5t-108 -167.5q-6 -28 -6 -53z" />
<glyph unicode="&#x26;" horiz-adv-x="1366" d="M158 274q0 35 10 86q35 156 137 263q88 90 311 223q-25 55 -39 115.5t-14 121.5q0 53 12 107q31 145 130.5 227t240.5 82q109 0 175.5 -56.5t66.5 -154.5v-35q-6 -25 -8 -36q-31 -135 -150 -246q-70 -66 -248 -178l113 -246q68 -143 127 -225q152 174 235 374l123 -24 q-51 -117 -122.5 -227.5t-161.5 -208.5q45 -59 94 -93q61 -41 131 -41l-27 -122q-96 0 -171.5 43t-137.5 118q-213 -162 -457 -161q-164 0 -262 71q-108 78 -108 223zM295 295q0 -96 80 -154q72 -51 184 -51q117 0 223 51q68 33 138 92q-53 61 -139.5 231.5t-125.5 272.5 q-156 -76 -229 -149q-92 -92 -125 -236q-6 -30 -6 -57zM696 1083q0 -100 41 -178q117 57 203 143.5t107 176.5q6 25 6 47q0 117 -138 117q-76 0 -130 -51.5t-78 -161.5q-11 -52 -11 -93z" />
<glyph unicode="'" horiz-adv-x="454" d="M401 1016l103 463h102l-102 -463h-103z" />
<glyph unicode="(" horiz-adv-x="681" d="M256 383q0 147 31 283q45 207 166.5 428t300.5 405h147q-193 -182 -323 -409q-121 -211 -168 -424q-29 -133 -29 -271q0 -154 37 -296t114 -267h-147q-63 121 -96 265.5t-33 285.5z" />
<glyph unicode=")" horiz-adv-x="681" d="M76 -168q193 182 323 410q121 211 168 424q29 133 29 270q0 154 -37 296t-115 267h148q63 -121 96 -265t33 -286q0 -147 -31 -282q-45 -207 -164 -422q-125 -227 -303 -412h-147z" />
<glyph unicode="*" horiz-adv-x="1024" d="M442 1188l60 106l248 -104l36 289h111l-86 -289l291 108l8 -102l-301 -70l139 -211l-106 -71l-82 254l-201 -254l-78 61l240 221z" />
<glyph unicode="+" horiz-adv-x="1228" d="M188 477l25 111h477l105 477h110l-104 -477h477l-25 -111h-477l-106 -477h-111l107 477h-478z" />
<glyph unicode="," horiz-adv-x="569" d="M96 -307l187 307h-86l41 184h176l-41 -184l-197 -307h-80z" />
<glyph unicode="-" horiz-adv-x="681" d="M193 477l24 111h510l-25 -111h-509z" />
<glyph unicode="." horiz-adv-x="569" d="M197 0l41 184h176l-41 -184h-176z" />
<glyph unicode="/" horiz-adv-x="569" d="M-29 -20l842 1519h113l-834 -1519h-121z" />
<glyph unicode="0" d="M186 442q0 135 35 297q74 336 240 537q184 223 440 223q195 0 291 -129q88 -119 88 -334q0 -135 -35 -297q-74 -336 -239 -536q-184 -223 -441 -223q-195 0 -291 129q-88 118 -88 333zM317 440q0 -168 66 -259t207 -91q193 0 328 180q125 166 192 469q18 84 28.5 159 t10.5 140q0 168 -65.5 259.5t-206.5 91.5q-193 0 -328 -181q-125 -166 -193 -469q-18 -84 -28.5 -158.5t-10.5 -140.5z" />
<glyph unicode="1" d="M274 0l25 111h254l274 1241l-290 -41l18 80l354 108h86l-307 -1388h246l-25 -111h-635z" />
<glyph unicode="2" d="M90 0l19 86q20 90 141 209q158 156 493 369q242 156 310 231q59 66 86 186q10 51 10 86q0 102 -66.5 162t-201.5 60q-274 0 -422 -334l-113 22q80 201 231.5 311.5t342.5 110.5q170 0 262 -80t92 -223q0 -51 -12 -111q-31 -145 -129.5 -252.5t-346.5 -259.5 q-123 -76 -219 -141q-131 -90 -213 -166q-98 -92 -116 -155h811l-25 -111h-934z" />
<glyph unicode="3" d="M90 274l121 62q35 -137 115 -191.5t227 -54.5q184 0 291.5 81t144.5 243q10 47 10 82q0 233 -366 233h-135l24 111h111q406 0 469 286q4 14 6 36t2 38q0 96 -69.5 142.5t-202.5 46.5q-100 0 -190.5 -46.5t-192.5 -146.5l-80 70q129 123 249.5 178t247.5 55q152 0 252 -59 q125 -74 125 -217q0 -23 -2 -36t-8 -48q-29 -131 -99.5 -210t-213.5 -138q98 -41 154.5 -109t56.5 -170q0 -41 -13 -94q-49 -225 -215 -336q-154 -102 -387 -102q-182 0 -292.5 72t-139.5 222z" />
<glyph unicode="4" d="M111 373l24 104l871 1002h180l-221 -998h223l-25 -108h-223l-82 -373h-135l82 373h-694zM270 483h559l193 869h-14z" />
<glyph unicode="5" d="M152 256l124 72q35 -127 107 -182.5t195 -55.5q184 0 313 121q115 106 149 268q6 23 10.5 61t4.5 60q0 129 -71 201.5t-204 72.5q-102 0 -208.5 -55t-170.5 -149l-102 18l242 791h735l-25 -111h-635l-155 -514q168 131 362 131q172 0 264.5 -102.5t92.5 -264.5 q0 -39 -2 -61t-13 -68q-51 -231 -211 -366q-170 -143 -417 -143q-141 0 -246.5 71.5t-138.5 204.5z" />
<glyph unicode="6" d="M190 406q0 61 5.5 116.5t29.5 163.5q72 319 260 547q221 266 510 266q188 0 324 -123l-84 -100q-39 61 -107.5 87t-158.5 26q-229 0 -402 -224q-141 -184 -196 -436q96 86 213.5 141.5t226.5 55.5q184 0 282.5 -98.5t98.5 -260.5q0 -39 -2 -61.5t-12 -67.5 q-45 -207 -222 -336q-168 -123 -378 -122q-209 0 -306 124q-82 107 -82 302zM313 391q0 -141 76 -221t217 -80q172 0 288 97.5t155 273.5q12 49 12 92q0 119 -77 190.5t-220 71.5t-293 -123q-127 -104 -142.5 -174t-15.5 -127z" />
<glyph unicode="7" d="M252 0l934 1368h-770l24 111h914l-19 -80l-938 -1399h-145z" />
<glyph unicode="8" d="M121 274q0 47 12 107q27 119 121 211q104 102 307 186q-215 84 -215 269q0 33 10 77q41 184 184.5 279.5t360.5 95.5q186 0 289.5 -72.5t103.5 -209.5q0 -43 -12 -93q-27 -121 -119 -209t-241 -137q137 -68 198.5 -148.5t61.5 -174.5q0 -41 -8 -74q-47 -211 -213 -311 q-150 -90 -396 -90q-213 0 -321 65q-123 73 -123 229zM262 313q0 -111 89 -167t239 -56q172 0 289 70q129 76 159 221q6 29 6 53q0 88 -83 158q-70 57 -232 129q-217 -80 -315 -148q-119 -80 -146 -192q-6 -37 -6 -68zM485 1077q0 -90 76 -153q68 -57 193 -93 q162 41 256 107q113 78 137 192q6 35 6 64q0 96 -73.5 145.5t-202.5 49.5q-150 0 -253.5 -66t-131.5 -193q-7 -28 -7 -53z" />
<glyph unicode="9" d="M127 102l84 105q53 -61 108.5 -89t151.5 -28q238 0 403 205q137 170 199 442q-100 -92 -215 -146t-227 -54q-184 0 -283.5 103t-99.5 259q0 53 12 109q51 225 229 362q168 129 379 129q209 0 306 -125q82 -106 81 -301q0 -61 -5 -116.5t-29 -163.5q-76 -332 -240 -547 q-205 -266 -498 -266q-121 0 -203.5 29.5t-152.5 92.5zM385 915q0 -121 76 -194.5t217 -73.5q143 0 295 125q127 104 143.5 175t16.5 136q0 145 -78 225.5t-215 80.5q-172 0 -288 -97.5t-155 -273.5q-12 -54 -12 -103z" />
<glyph unicode=":" horiz-adv-x="569" d="M197 0l41 184h176l-41 -184h-176zM334 623l41 184h176l-41 -184h-176z" />
<glyph unicode=";" horiz-adv-x="569" d="M96 -307l187 307h-86l41 184h176l-41 -184l-197 -307h-80zM334 623l41 184h176l-41 -184h-176z" />
<glyph unicode="&#x3c;" horiz-adv-x="1228" d="M186 475l27 115l1173 487l-26 -119l-1020 -426l831 -426l-26 -118z" />
<glyph unicode="=" horiz-adv-x="1228" d="M141 272l25 111h1065l-25 -111h-1065zM233 682l25 111h1065l-25 -111h-1065z" />
<glyph unicode="&#x3e;" horiz-adv-x="1228" d="M80 -12l26 118l1020 426l-831 426l27 119l956 -487l-27 -115z" />
<glyph unicode="?" horiz-adv-x="796" d="M238 0l41 184h176l-41 -184h-176zM336 1247q70 119 164 183q104 70 229 69q121 0 198 -63.5t77 -184.5q0 -35 -11 -86q-25 -113 -139 -223l-207 -180q-115 -109 -139 -213l-21 -98h-110l33 147q16 72 299 350q131 129 155 244q6 29 6 53q0 68 -46 106t-122 38 q-90 0 -167 -64q-55 -45 -109 -129z" />
<glyph unicode="@" horiz-adv-x="1638" d="M246 573q0 82 18 172q70 311 340 532.5t578 221.5q250 0 407.5 -139t157.5 -359q0 -43 -2 -65.5t-12 -69.5q-51 -229 -244 -411q-184 -174 -352 -174q-109 0 -109 110q0 20 2 33l-6 -4q-68 -57 -139 -94q-88 -45 -160 -45q-104 0 -161.5 63.5t-57.5 163.5v32q0 13 8 46 q51 231 229 411q190 195 404 195q76 0 124 -41t60 -133l84 135h111l-336 -604l-32 -66q-15 -33 -18 -45t-3 -24q0 -39 43 -39q125 0 266 159.5t180 337.5q14 57 14 121q0 186 -135 301t-338 115q-274 0 -505.5 -199.5t-294.5 -478.5q-16 -78 -17 -145q0 -223 146.5 -369.5 t377.5 -146.5q156 0 320 76.5t285 205.5h106q-131 -170 -331.5 -271t-399.5 -101q-274 0 -441 166.5t-167 426.5zM639 537q0 -70 38 -110t101 -40q135 0 287 180q137 164 172 320q6 23 6 43q0 63 -38 109t-91 46q-150 0 -299 -170q-133 -154 -170 -319q-6 -30 -6 -59z" />
<glyph unicode="A" horiz-adv-x="1251" d="M51 0l801 1479h207l139 -1479h-143l-43 483h-559l-258 -483h-144zM512 594h494l-74 774z" />
<glyph unicode="B" horiz-adv-x="1366" d="M205 0l327 1479h414q236 0 345.5 -64.5t109.5 -204.5q0 -47 -12 -102q-27 -123 -90.5 -194.5t-190.5 -125.5q94 -47 145.5 -118.5t51.5 -171.5q0 -43 -13 -92q-49 -219 -213 -318q-147 -88 -403 -88h-471zM365 111h350q197 0 303 72.5t141 230.5q6 35 6 67q0 106 -84 166 q-92 66 -276 66h-307zM522 823h322q152 0 250 56q123 70 157 219q10 51 11 82q0 106 -86 147t-267 41h-266z" />
<glyph unicode="C" horiz-adv-x="1251" d="M231 477q0 121 31 262q76 348 272.5 554t464.5 206q190 0 289 -123q90 -113 90 -305l-131 -27q0 162 -74.5 253.5t-209.5 91.5q-209 0 -363 -189q-139 -172 -203 -461q-31 -139 -30 -258q0 -182 78.5 -286.5t244.5 -104.5q164 0 281 107q90 82 172 254l121 -23 q-92 -215 -226 -324q-154 -125 -374 -124q-211 0 -322 130.5t-111 366.5z" />
<glyph unicode="D" horiz-adv-x="1366" d="M205 0l327 1479h418q262 0 391 -144q117 -129 117 -360q0 -109 -28 -236q-72 -322 -265 -518q-217 -221 -542 -221h-418zM365 111h286q246 0 411 162.5t232 465.5q27 121 27 228q0 195 -99.5 298t-291.5 103h-287z" />
<glyph unicode="E" d="M205 0l327 1479h844l-24 -111h-709l-121 -545h510l-24 -110h-510l-133 -602h747l-25 -111h-882z" />
<glyph unicode="F" d="M205 0l327 1479h869l-25 -111h-733l-121 -545h535l-25 -110h-534l-158 -713h-135z" />
<glyph unicode="G" horiz-adv-x="1366" d="M229 475q0 125 33 264q80 356 291 564q201 197 451 196q199 0 305 -119q100 -113 100 -309l-131 -22q0 152 -70 239q-80 100 -237 101q-195 0 -351.5 -175.5t-222.5 -474.5q-14 -72 -22 -134t-8 -124q0 -180 75 -276q90 -115 285 -115q154 0 272.5 102.5t151.5 253.5 l31 136h-373l25 110h507l-153 -692h-117l33 145q-90 -86 -191.5 -125.5t-250.5 -39.5q-201 0 -317 127.5t-116 367.5z" />
<glyph unicode="H" horiz-adv-x="1478" d="M205 0l327 1479h136l-146 -656h799l145 656h136l-328 -1479h-135l157 713h-798l-158 -713h-135z" />
<glyph unicode="I" horiz-adv-x="569" d="M217 0l328 1479h135l-328 -1479h-135z" />
<glyph unicode="J" horiz-adv-x="909" d="M39 176l123 64q31 -82 70.5 -116t129.5 -34q100 0 163 62.5t93 199.5l250 1127h136l-259 -1168q-37 -162 -146.5 -246.5t-268.5 -84.5q-129 0 -190.5 45t-100.5 151z" />
<glyph unicode="K" horiz-adv-x="1251" d="M205 0l327 1479h136l-179 -803l854 803h166l-602 -566l332 -913h-152l-288 815l-350 -321l-109 -494h-135z" />
<glyph unicode="L" horiz-adv-x="1024" d="M205 0l327 1479h136l-303 -1368h659l-25 -111h-794z" />
<glyph unicode="M" horiz-adv-x="1705" d="M205 0l327 1479h238l129 -1254l692 1254h238l-328 -1479h-135l303 1368l-751 -1368h-130l-141 1368l-307 -1368h-135z" />
<glyph unicode="N" horiz-adv-x="1478" d="M205 0l327 1479h228l430 -1233l276 1233h136l-328 -1479h-139l-488 1368l-307 -1368h-135z" />
<glyph unicode="O" horiz-adv-x="1366" d="M233 489q0 113 29 250q74 334 273 543q207 217 479 217q215 0 329.5 -138t114.5 -372q0 -113 -28 -250q-74 -334 -273 -542q-207 -217 -479 -217q-215 0 -330 138t-115 371zM367 492q0 -195 87 -298.5t248 -103.5q207 0 366 171t226 478q31 139 31 248q0 195 -87 298.5 t-249 103.5q-207 0 -365.5 -171t-226.5 -479q-30 -138 -30 -247z" />
<glyph unicode="P" horiz-adv-x="1251" d="M205 0l327 1479h447q217 0 319.5 -78t102.5 -223q0 -51 -12 -111q-43 -195 -185 -299q-152 -113 -407 -113h-312l-145 -655h-135zM510 766h311q186 0 292 76t140 225q10 51 11 86q0 106 -75 160.5t-235 54.5h-311z" />
<glyph unicode="Q" horiz-adv-x="1366" d="M233 489q0 113 29 250q74 334 273 543q207 217 479 217q215 0 329.5 -138t114.5 -372q0 -113 -28 -250q-86 -391 -334 -598q29 -82 77 -111.5t146 -29.5l-27 -123q-106 0 -182 41q-90 47 -123 145q-143 -84 -309 -83q-215 0 -330 138t-115 371zM367 492q0 -195 87 -298.5 t248 -103.5q133 0 250 74q-31 84 -64.5 115.5t-94.5 42.5l28 133q170 -31 244 -197q160 168 229 481q31 139 31 248q0 195 -87 298.5t-249 103.5q-207 0 -365.5 -171t-226.5 -479q-30 -138 -30 -247z" />
<glyph unicode="R" horiz-adv-x="1366" d="M205 0l327 1479h500q182 0 280.5 -81t98.5 -222q0 -45 -12 -99q-66 -299 -391 -377l206 -700h-147l-195 676h-383l-149 -676h-135zM514 786h365q150 0 252 77t133 214q10 47 10 82q0 209 -266 209h-365z" />
<glyph unicode="S" d="M150 375l133 39q0 -324 350 -324q137 0 233.5 80t126.5 215q6 35 6 61q0 121 -170 203l-315 135q-170 94 -170 246q0 35 10 86q39 170 173.5 276.5t336.5 106.5q178 0 287 -94t109 -260l-125 -35q-12 131 -82 201q-76 78 -213 78q-133 0 -227.5 -71t-123.5 -202l-5 -25 q-3 -15 -3 -32q0 -59 47 -105q57 -53 201 -112q233 -96 321.5 -175t88.5 -190q0 -27 -6.5 -61.5l-8.5 -44.5q-41 -182 -198 -291q-147 -100 -338 -100q-215 0 -326.5 97t-111.5 298z" />
<glyph unicode="T" d="M367 1368l24 111h1012l-25 -111h-438l-303 -1368h-135l303 1368h-438z" />
<glyph unicode="U" horiz-adv-x="1478" d="M293 324q0 74 18 159l221 996h136l-224 -1008q-18 -78 -18 -135q0 -131 83 -188.5t251 -57.5q203 0 315 84q121 90 168 297l223 1008h136l-222 -996q-111 -504 -645 -503q-442 0 -442 344z" />
<glyph unicode="V" d="M344 1479h143l117 -1286l703 1286h143l-819 -1479h-135z" />
<glyph unicode="W" horiz-adv-x="1705" d="M360 1479h138l43 -1233l571 1233h135l17 -1233l598 1233h137l-723 -1479h-135l-19 1217l-563 -1217h-135z" />
<glyph unicode="X" d="M25 0l632 774l-278 705h160l223 -590l477 590h160l-582 -705l297 -774h-160l-245 647l-525 -647h-159z" />
<glyph unicode="Y" d="M369 1479h151l203 -731l551 731h151l-657 -852l-139 -627h-135l139 627z" />
<glyph unicode="Z" d="M94 0l25 111l1050 1257h-708l24 111h877l-25 -115l-1050 -1253h782l-25 -111h-950z" />
<glyph unicode="[" horiz-adv-x="681" d="M147 -147l361 1626h381l-17 -74h-258l-327 -1479h258l-17 -73h-381z" />
<glyph unicode="\" horiz-adv-x="569" d="M307 1499h113l170 -1519h-121z" />
<glyph unicode="]" horiz-adv-x="681" d="M88 -147l16 73h258l328 1479h-258l17 74h380l-360 -1626h-381z" />
<glyph unicode="^" horiz-adv-x="1228" d="M250 606l637 873h108l254 -873h-135l-209 725l-520 -725h-135z" />
<glyph unicode="_" horiz-adv-x="1024" d="M-57 -256l22 102h1024l-22 -102h-1024z" />
<glyph unicode="`" horiz-adv-x="454" d="M297 1466h158l163 -282h-104z" />
<glyph unicode="a" horiz-adv-x="1024" d="M102 188v41q6 20 9 29q31 141 122 218t261 130q111 35 397 94l16 74q10 45 11 74q0 72 -48.5 105.5t-158.5 33.5q-94 0 -182.5 -48t-170.5 -144l-71 49q94 125 205.5 183t242.5 58q152 0 224.5 -52t72.5 -167q0 -55 -14 -114l-123 -557q-14 -59 -20.5 -101.5t-6.5 -93.5 h-118l12 129q-121 -80 -212 -114.5t-208 -34.5q-111 0 -175.5 54t-64.5 154zM227 213q0 -66 41 -100.5t115 -34.5q86 0 195.5 47t205.5 129l78 348q-354 -74 -493 -160q-109 -68 -136 -182q-6 -24 -6 -47z" />
<glyph unicode="b" d="M188 0l328 1479h123l-123 -553q98 86 181 122.5t188 36.5q150 0 233.5 -104t83.5 -276q0 -76 -18 -166q-59 -272 -200.5 -415.5t-350.5 -143.5q-115 0 -190.5 37.5t-116.5 121.5l-52 -139h-86zM371 272q51 -96 102 -139q68 -55 174 -55q154 0 264 127q102 117 146 311 q23 102 22 182q0 137 -61.5 213t-186.5 76q-82 0 -194 -67q-98 -59 -150 -123z" />
<glyph unicode="c" horiz-adv-x="1024" d="M170 354q0 37 6 84t17 94q57 268 212.5 410.5t366.5 142.5q147 0 227 -74.5t99 -213.5l-119 -31q-25 104 -70 156q-57 66 -157 65q-160 0 -267 -102q-119 -115 -170 -353q-18 -90 -18 -163q0 -139 63.5 -215t188.5 -76q106 0 199 59q76 49 170 162l88 -47 q-104 -127 -207 -193q-127 -80 -271 -79q-174 0 -266 100t-92 274z" />
<glyph unicode="d" d="M168 330q0 92 25 209q53 238 203.5 392t336.5 154q106 0 171 -35.5t128 -123.5l123 553h123l-328 -1479h-86l10 139q-74 -80 -170 -119.5t-206 -39.5q-162 0 -246 90t-84 260zM291 350q0 -127 57.5 -199.5t175.5 -72.5q104 0 199 55q78 45 164 139l117 525 q-20 61 -93 121q-84 70 -166 69q-162 0 -274.5 -128t-159.5 -343q-8 -37 -14 -84t-6 -82z" />
<glyph unicode="e" horiz-adv-x="1024" d="M168 334q0 88 25 198q53 248 205.5 400.5t353.5 152.5q166 0 246.5 -92t80.5 -262q0 -92 -24 -203h-742q-18 -84 -18 -159q0 -135 62.5 -213t197.5 -78q106 0 178 43t182 172l89 -53q-119 -143 -223.5 -201.5t-256.5 -58.5q-172 0 -264 88t-92 266zM336 627h618 q6 47 7 86q0 131 -57.5 202.5t-176.5 71.5q-147 0 -264 -127q-98 -106 -127 -233z" />
<glyph unicode="f" horiz-adv-x="569" d="M197 0l215 967h-176l20 98h176l35 152q33 143 107.5 212.5t209.5 69.5q31 0 44.5 -1t86.5 -15l-24 -103q-23 8 -53.5 14.5t-61.5 6.5q-74 0 -119 -40t-65 -130l-37 -166h217l-20 -98h-217l-216 -967h-122z" />
<glyph unicode="g" horiz-adv-x="1024" d="M6 -170q0 20 6 45q16 76 66 127q57 59 172 98q-57 16 -82 37q-33 29 -33 76q0 10 4 31q14 66 74.5 117t126.5 63q-98 78 -98 211q0 33 6 67q39 176 175 279.5t331 103.5q78 0 130 -17t103 -56q113 94 244 94l-25 -111q-53 0 -99 -10t-83 -39q39 -61 39 -135 q0 -39 -12 -88q-41 -188 -183 -285q-129 -88 -311 -88q-61 0 -108 12q-8 2 -58 21q-102 -35 -121 -102q-2 -8 -1 -15q0 -39 48 -57q57 -20 263 -21q205 0 301 -54t96 -159q0 -29 -6 -63q-27 -129 -148 -203q-141 -86 -401 -86q-223 0 -328 62q-88 53 -88 145zM137 -133 q0 -70 71 -108t218 -38q195 0 299 48.5t123 134.5q4 20 4 30q0 66 -72 101q-86 43 -284 43q-168 0 -260 -55q-76 -45 -95 -125q-4 -21 -4 -31zM365 641q0 -94 63.5 -143t163.5 -49q131 0 217 65.5t117 200.5q12 49 12 88q0 94 -58.5 139t-168.5 45q-129 0 -219.5 -73.5 t-118.5 -198.5q-4 -14 -6 -36t-2 -38z" />
<glyph unicode="h" d="M168 0l328 1479h122l-129 -582q119 100 197 139q98 49 209 49q254 0 254 -227q0 -53 -16 -131l-162 -727h-123l158 715q16 72 16 119q0 154 -172 153q-102 0 -225 -84q-33 -23 -160 -119l-174 -784h-123z" />
<glyph unicode="i" horiz-adv-x="454" d="M166 0l235 1065h123l-235 -1065h-123zM455 1298l39 181h122l-38 -181h-123z" />
<glyph unicode="j" horiz-adv-x="454" d="M-121 -365l21 101q51 -14 84 -15q119 0 145 111l272 1233h123l-272 -1235q-25 -109 -92.5 -158t-173.5 -49q-66 0 -107 12zM455 1298l39 181h122l-38 -181h-123z" />
<glyph unicode="k" horiz-adv-x="1024" d="M168 0l328 1479h122l-217 -979l619 565h141l-434 -397l252 -668h-137l-211 582l-264 -238l-76 -344h-123z" />
<glyph unicode="l" horiz-adv-x="454" d="M166 0l328 1479h122l-327 -1479h-123z" />
<glyph unicode="m" horiz-adv-x="1705" d="M168 0l235 1065h123l-34 -162q111 94 184 133q96 49 209 49q92 0 153.5 -53t61.5 -141q104 96 184 139q102 55 211 55q229 0 229 -194q0 -41 -12 -94l-176 -797h-123l180 809q6 31 6 55q0 123 -151 123q-74 0 -183.5 -61.5t-177.5 -141.5l-174 -784h-122l180 809 q6 31 6 55q0 123 -152 123q-74 0 -183.5 -61.5t-176.5 -141.5l-174 -784h-123z" />
<glyph unicode="n" d="M168 0l235 1065h123l-37 -168q119 100 197 139q98 49 209 49q254 0 254 -227q0 -53 -16 -131l-162 -727h-123l158 715q16 72 16 119q0 154 -172 153q-102 0 -225 -84q-33 -23 -160 -119l-174 -784h-123z" />
<glyph unicode="o" horiz-adv-x="1024" d="M168 330q0 98 25 202q53 244 178 386q147 168 381 167q180 0 264 -100q76 -90 76 -254q0 -90 -23 -199q-55 -244 -180 -385q-147 -168 -381 -167q-178 0 -264 100q-76 88 -76 250zM291 336q0 -258 237 -258q160 0 263.5 115.5t154.5 338.5q25 109 25 193 q0 129 -58.5 195.5t-181.5 66.5q-162 0 -264 -116.5t-152 -338.5q-24 -110 -24 -196z" />
<glyph unicode="p" d="M104 -377l320 1442h123l-35 -164q172 184 365 184q160 0 241.5 -107.5t81.5 -279.5q0 -82 -18 -172q-59 -270 -207 -411q-139 -135 -334 -135q-106 0 -170.5 35.5t-128.5 123.5l-115 -516h-123zM371 268q20 -61 92 -121q84 -70 166 -69q162 0 273.5 124t160.5 347 q18 78 18 151q0 129 -53 203q-59 84 -178 84q-90 0 -182 -55q-59 -37 -181 -139z" />
<glyph unicode="q" d="M172 358q0 78 18 164q59 270 200.5 412.5t350.5 142.5q102 0 178 -41t130 -116l49 137h86l-318 -1434h-123l115 514q-98 -84 -182 -120.5t-187 -36.5q-147 0 -232 103t-85 275zM295 365q0 -135 61.5 -211t186.5 -76q82 0 189.5 64.5t154.5 123.5l114 520q-47 94 -100 138 q-70 55 -176 55q-154 0 -264 -125q-100 -115 -144 -309q-22 -102 -22 -180z" />
<glyph unicode="r" horiz-adv-x="681" d="M160 0l235 1065h123l-45 -203q70 100 166 161.5t195 61.5h55l-25 -118h-55q-109 0 -229 -105q-131 -115 -164 -260l-133 -602h-123z" />
<glyph unicode="s" horiz-adv-x="909" d="M94 195l105 63q49 -102 113.5 -141t174.5 -39q102 0 183.5 57.5t99.5 145.5q6 25 6 45q0 109 -263 184.5t-263 216.5v26q0 11 8 42q33 143 150 221q104 70 251 69q131 0 209 -48t117 -144l-108 -66q-41 80 -93 117q-59 43 -149 43q-96 0 -164 -46t-88 -140q-4 -25 -4 -33 q0 -86 261 -166t261 -244q0 -39 -8 -77q-29 -137 -156 -219t-278 -82q-127 0 -221.5 52t-143.5 163z" />
<glyph unicode="t" horiz-adv-x="569" d="M209 104q0 31 8 62l178 801h-159l20 98h160l78 348h122l-77 -348h233l-20 -98h-234l-174 -781q-6 -23 -6 -39q0 -70 90 -69q31 0 62.5 5t68.5 17l-22 -102q-35 -4 -74 -11t-55 -7q-109 0 -154 28t-45 96z" />
<glyph unicode="u" d="M227 205q0 55 17 133l159 727h123l-157 -715q-16 -72 -17 -119q0 -154 172 -153q102 0 226 84q33 23 159 119l174 784h123l-235 -1065h-123l37 168q-119 -100 -197 -139q-98 -49 -209 -49q-252 0 -252 225z" />
<glyph unicode="v" horiz-adv-x="909" d="M264 1065h131l97 -877l493 877h131l-602 -1065h-121z" />
<glyph unicode="w" horiz-adv-x="1366" d="M250 1065h125l45 -856l436 856h121l49 -856l432 856h127l-545 -1065h-120l-50 856l-432 -856h-127z" />
<glyph unicode="x" horiz-adv-x="909" d="M20 0l486 565l-209 500h147l162 -385l330 385h147l-430 -500l236 -565h-148l-186 449l-387 -449h-148z" />
<glyph unicode="y" horiz-adv-x="909" d="M-47 -365l20 101l53.5 -8.5t67.5 -6.5q72 0 144 64q84 76 161 231l-139 1049h135l103 -866l491 866h131l-649 -1141q-94 -166 -176 -229q-92 -72 -232 -72q-69 0 -110 12z" />
<glyph unicode="z" horiz-adv-x="909" d="M51 0l17 78l813 889h-566l21 98h729l-16 -78l-811 -889h630l-22 -98h-795z" />
<glyph unicode="{" horiz-adv-x="681" d="M217 -18q0 31 10 81l88 400l9.5 44t1.5 32q0 47 -21.5 68.5t-75.5 21.5l17 73q68 0 103.5 40t56.5 126l88 400q25 111 85 171t146 60h127l-16 -74h-103q-43 0 -68.5 -27.5t-41.5 -107.5l-91 -403q-23 -98 -70.5 -149.5t-125.5 -69.5q55 -16 81.5 -50t26.5 -96 q0 -31 -10 -78l-90 -403q-10 -51 -10 -74q0 -35 15.5 -48t47.5 -13h103l-17 -74h-127q-139 0 -139 150z" />
<glyph unicode="|" horiz-adv-x="454" d="M168 -20l336 1519h110l-335 -1519h-111z" />
<glyph unicode="}" horiz-adv-x="681" d="M125 -168l16 74h103q43 0 68.5 27.5t41.5 107.5l90 403q23 98 71 149.5t126 70.5q-55 16 -82 50t-27 95q0 31 11 78l90 403q10 51 10 74q0 35 -15.5 48t-47.5 13h-103l17 74h127q139 0 139 -149q0 -31 -10 -82l-88 -400l-9.5 -44t-1.5 -31q0 -47 21.5 -69t75.5 -22 l-17 -73q-68 0 -103.5 -40t-56.5 -126l-88 -400q-25 -111 -85 -171t-146 -60h-127z" />
<glyph unicode="~" horiz-adv-x="1228" d="M213 485q59 76 123 117q86 55 190 55q53 0 104.5 -16t125.5 -49q113 -49 145.5 -59.5t67.5 -10.5q59 0 121 45q39 29 104 99l59 -86q-61 -78 -127 -119q-84 -53 -188 -53q-53 0 -104.5 16t-124.5 49q-113 51 -136 57q-39 12 -75 13q-57 0 -121 -45q-43 -31 -107 -99z" />
<glyph unicode="&#xa1;" horiz-adv-x="454" d="M47 -414l264 1024h103l-191 -1024h-176zM334 881l41 184h176l-41 -184h-176z" />
<glyph unicode="&#xa2;" d="M227 -246l152 277q-150 92 -150 323q0 88 21 178q57 268 212.5 410.5t366.5 142.5q63 0 119 -16l119 219h111l-144 -262q102 -76 121 -229l-119 -31q-20 90 -63 147l-451 -823q37 -12 84 -12q106 0 199 59q76 49 170 162l88 -47q-104 -127 -207 -193q-127 -80 -270 -79 q-68 0 -117 14l-131 -240h-111zM352 371q0 -160 86 -234l457 834q-18 8 -37.5 12t-48.5 4q-160 0 -266 -102q-119 -115 -170 -353q-21 -83 -21 -161z" />
<glyph unicode="&#xa3;" d="M29 -20l28 126q135 55 224 183q76 111 110 262q6 29 10.5 70t8.5 65h-228l23 98h215l37 301q43 188 180 301t326 113q172 0 266 -102q88 -96 88 -273l-125 -28q0 143 -53 213q-61 80 -203 80q-145 0 -234.5 -82t-121.5 -228q-16 -70 -24.5 -145.5t-8.5 -149.5h299 l-23 -98h-286q-4 -18 -8.5 -54t-8.5 -54q-25 -104 -55.5 -176t-95.5 -169q78 -59 147 -94q96 -49 176 -49q127 0 211 59.5t160 217.5l108 -25q-74 -174 -195.5 -268t-287.5 -94q-131 0 -229 47q-53 27 -166 112q-61 -66 -125.5 -105.5t-138.5 -53.5z" />
<glyph unicode="&#xa4;" d="M129 309l135 111q-53 82 -53 196q0 27 3 56.5t11 66.5q18 86 64.5 170t118.5 150l-86 110l94 78l90 -112q158 113 340 112q180 0 291 -112l139 112l61 -78l-135 -110q53 -82 53 -197q0 -27 -3 -56.5t-11 -66.5q-18 -86 -64.5 -170t-117.5 -149l86 -111l-94 -78l-90 113 q-158 -113 -340 -113q-180 0 -291 113l-140 -113zM326 649q0 -137 89 -228t228 -91q164 0 307.5 120.5t179.5 288.5q10 51 11 90q0 137 -89 228.5t-229 91.5q-164 0 -307 -121t-180 -289q-10 -51 -10 -90z" />
<glyph unicode="&#xa5;" d="M246 504l20 98h361l6 25l-51 176h-271l23 98h221l-170 578h135l203 -731l551 731h135l-434 -578h215l-23 -98h-266l-133 -176l-6 -25h360l-20 -98h-361l-112 -504h-135l112 504h-360z" />
<glyph unicode="&#xa6;" horiz-adv-x="454" d="M168 -20l127 573h111l-127 -573h-111zM377 926l127 573h110l-127 -573h-110z" />
<glyph unicode="&#xa7;" horiz-adv-x="1024" d="M182 27l99 55q10 -70 58 -113t122 -43q182 0 215 152q2 8 2 24q0 74 -94 196l-185 239q-98 139 -98 231q0 20 6 43q20 96 101 152.5t184 56.5l6 4q-35 31 -58.5 77t-23.5 101q0 29 6 60q23 104 114 170.5t208 66.5q104 0 170.5 -52t91.5 -149l-94 -51q-20 78 -64 117 q-49 45 -133 45q-74 0 -125 -41t-69 -123q-2 -8 -3 -24q0 -66 99 -181l184 -211q100 -131 100 -227q0 -25 -6 -49q-27 -121 -102 -178q-68 -51 -172 -51q29 -45 46 -95.5t17 -99.5q0 -35 -8 -66q-25 -113 -127 -174q-90 -53 -211 -53q-94 0 -167 52.5t-89 138.5zM414 831 q-18 -82 108.5 -262t194.5 -180q63 0 110 41t62 102q16 74 -107 248t-207 174q-49 0 -99 -35t-62 -88z" />
<glyph unicode="&#xa8;" horiz-adv-x="454" d="M266 1204l43 193h135l-43 -193h-135zM586 1204l43 193h135l-43 -193h-135z" />
<glyph unicode="&#xa9;" horiz-adv-x="1638" d="M205 575q0 80 18 164q70 313 341.5 536.5t586.5 223.5q272 0 441 -169t169 -427q0 -80 -18 -164q-70 -313 -341.5 -536t-586.5 -223q-272 0 -441 168.5t-169 426.5zM328 584q0 -221 138 -361.5t372 -140.5q272 0 496.5 189.5t285.5 467.5q18 80 18 156q0 221 -138 361.5 t-372 140.5q-272 0 -496 -189.5t-286 -468.5q-18 -79 -18 -155zM532 618q0 57 13 123q47 209 199.5 344.5t361.5 135.5q145 0 233 -73t88 -208q0 -25 -2 -37h-110q0 94 -58 152q-63 63 -172 63q-156 0 -268 -106.5t-149 -268.5q-10 -55 -11 -96q0 -123 70 -205t195 -82 q106 0 193 63.5t128 160.5h111q-68 -147 -190 -236.5t-265 -89.5q-174 0 -270.5 98t-96.5 262z" />
<glyph unicode="&#xaa;" horiz-adv-x="614" d="M244 969q0 12 4 37q31 135 203 200l274 70l12 51q2 6 2 13v10q0 33 -25.5 50t-88.5 17q-117 0 -211 -100l-58 41q63 76 131 108.5t166 32.5q96 0 142.5 -31.5t46.5 -99.5q0 -10 -1 -23.5t-7 -41.5l-72 -320q-16 -82 -17 -131h-90l9 78q-66 -47 -125.5 -68.5t-135.5 -21.5 q-72 0 -115.5 34t-43.5 95zM350 1008q-8 -37 14.5 -61.5t69.5 -24.5q57 0 125 27.5t109 66.5l39 172l-203 -53q-136 -47 -154 -127z" />
<glyph unicode="&#xab;" horiz-adv-x="1024" d="M287 537l317 311h135l-323 -311l182 -320h-135zM590 537l319 311h135l-325 -311l184 -320h-135z" />
<glyph unicode="&#xac;" horiz-adv-x="1228" d="M233 682l25 111h1065l-117 -521h-110l92 410h-955z" />
<glyph unicode="&#xad;" horiz-adv-x="1228" d="M188 477l25 111h1065l-25 -111h-1065z" />
<glyph unicode="&#xae;" horiz-adv-x="1638" d="M205 575q0 80 18 164q70 313 341.5 536.5t586.5 223.5q272 0 441 -169t169 -427q0 -80 -18 -164q-70 -313 -341.5 -536t-586.5 -223q-272 0 -441 168.5t-169 426.5zM328 584q0 -221 138 -361.5t372 -140.5q272 0 496.5 189.5t285.5 467.5q18 80 18 156q0 221 -138 361.5 t-372 140.5q-272 0 -496 -189.5t-286 -468.5q-18 -79 -18 -155zM600 287l201 903h346q246 0 246 -176v-43q-6 -23 -9 -31q-25 -111 -104 -176q-68 -57 -162 -76l164 -401h-139l-158 401h-174l-88 -401h-123zM836 791h141q127 0 174 16q88 31 111 135q6 25 6 43 q0 59 -47 80.5t-123 21.5h-197z" />
<glyph unicode="&#xaf;" horiz-adv-x="454" d="M205 1264l20 90h606l-20 -90h-606z" />
<glyph unicode="&#xb0;" horiz-adv-x="819" d="M371 1135q0 31 6 65q27 123 133 211t231 88q106 0 173 -64.5t67 -168.5q0 -31 -6 -66q-27 -123 -133.5 -211t-231.5 -88q-106 0 -172.5 65t-66.5 169zM465 1147q0 -72 44 -116t120 -44q90 0 160.5 60.5t91.5 152.5q6 29 6 53q0 72 -44 116t-120 44q-90 0 -160.5 -60.5 t-91.5 -152.5q-6 -28 -6 -53z" />
<glyph unicode="&#xb1;" horiz-adv-x="1228" d="M82 0l24 111h1065l-24 -111h-1065zM209 575l24 111h478l84 379h110l-84 -379h477l-24 -111h-477l-84 -378h-111l84 378h-477z" />
<glyph unicode="&#xb2;" horiz-adv-x="681" d="M166 598l14 68q14 61 66 112q72 72 252 180q172 98 241 164q59 55 74 119q6 25 6 47q0 121 -135 121q-186 0 -270 -178l-90 14q49 119 147 186.5t227 67.5q104 0 166 -51t62 -141v-43l-8 -31q-18 -86 -89 -154q-25 -23 -273.5 -183.5t-264.5 -207.5h504l-19 -90h-610z " />
<glyph unicode="&#xb3;" horiz-adv-x="681" d="M172 762l96 49q25 -78 71 -106.5t142 -28.5q106 0 173 44t85 126q6 25 6 45q0 68 -58 100.5t-167 32.5h-88l21 90h71q119 0 189.5 38t89.5 122q2 10 2 26q0 51 -41 80t-105 29q-84 0 -133 -19.5t-112 -82.5l-62 47q72 78 147.5 111.5t170.5 33.5q104 0 176 -44t72 -128 q0 -20 -7 -45q-18 -82 -53 -125q-43 -51 -129 -84q123 -47 123 -164q0 -27 -6 -61q-29 -133 -137 -201q-98 -61 -252 -61q-240 0 -285 176z" />
<glyph unicode="&#xb4;" horiz-adv-x="454" d="M360 1184l291 282h158l-344 -282h-105z" />
<glyph unicode="&#xb5;" d="M84 -377l319 1442h123l-157 -715q-16 -72 -17 -119q0 -154 172 -153q102 0 226 84q33 23 159 119l174 784h123l-235 -1065h-123l37 168q-119 -100 -197 -139q-98 -49 -209 -49q-121 0 -182 49l-90 -406h-123z" />
<glyph unicode="&#xb6;" horiz-adv-x="1024" d="M264 999v32q0 13 8 46q43 193 186.5 297.5t358.5 104.5h539l-21 -90h-151l-344 -1553h-103l344 1553h-215l-344 -1553h-102l188 852q-154 0 -249 89t-95 222z" />
<glyph unicode="&#xb7;" horiz-adv-x="569" d="M299 510q0 14 5 38.5t44 55.5t78 31q37 0 59.5 -22.5t22.5 -61.5q0 -12 -2 -19q-10 -43 -48 -72.5t-77 -29.5q-35 0 -58.5 21.5t-23.5 58.5z" />
<glyph unicode="&#xb8;" horiz-adv-x="454" d="M-86 -385l45 74q41 -16 69.5 -24.5t45.5 -8.5q133 0 153 84q8 41 -13 62.5t-60 21.5q-49 0 -95 -19l-24 27l160 168h77l-110 -102q16 2 37.5 5t31.5 3q127 0 127 -119q0 -25 -6 -53q-16 -76 -100 -121q-72 -39 -150 -39q-57 0 -102 8t-86 33z" />
<glyph unicode="&#xb9;" horiz-adv-x="681" d="M283 598l18 90h150l157 709l-176 -41l17 76l204 67h84l-180 -811h158l-19 -90h-413z" />
<glyph unicode="&#xba;" horiz-adv-x="614" d="M268 1059q0 51 13 110q31 145 110 230q94 100 248 100q119 0 176 -63q49 -55 49 -158q0 -53 -12 -109q-33 -145 -113 -229q-94 -100 -245 -100q-119 0 -177 63q-49 56 -49 156zM381 1059q0 -125 133 -125q94 0 145.5 56.5t77.5 178.5q12 61 13 107q0 66 -30 97.5 t-102 31.5q-94 0 -145 -57.5t-78 -178.5q-14 -59 -14 -110z" />
<glyph unicode="&#xbb;" horiz-adv-x="1024" d="M215 217l326 311l-185 320h136l178 -320l-320 -311h-135zM520 217l324 311l-182 320h135l176 -320l-318 -311h-135z" />
<glyph unicode="&#xbc;" horiz-adv-x="1708" d="M332 598l18 90h150l157 709l-176 -41l17 76l204 67h84l-180 -811h158l-19 -90h-413zM367 -20l1245 1519h117l-1242 -1519h-120zM993 213l23 98l528 578h137l-129 -586h146l-21 -90h-145l-47 -213h-107l47 213h-432zM1128 303h318l102 463h-8z" />
<glyph unicode="&#xbd;" horiz-adv-x="1708" d="M332 598l18 90h150l157 709l-176 -41l17 76l204 67h84l-180 -811h158l-19 -90h-413zM342 -20l1245 1519h117l-1241 -1519h-121zM1008 0l14 68q14 61 65 112q72 72 252 180q174 100 244 164q59 55 74 119q6 23 6 43q0 57 -36 91t-101 34q-188 0 -269 -178l-92 14 q49 119 149.5 186.5t227.5 67.5q227 0 227 -196v-41q-6 -20 -8 -29q-18 -86 -88 -154q-20 -20 -272 -182t-266 -209h503l-20 -90h-610z" />
<glyph unicode="&#xbe;" horiz-adv-x="1708" d="M229 762l97 49q25 -78 70.5 -106.5t142.5 -28.5q106 0 172.5 44t85.5 126q6 25 6 45q0 68 -58.5 100.5t-166.5 32.5h-89l21 90h72q119 0 189.5 38t88.5 122q2 10 2 26q0 51 -41 80t-104 29q-84 0 -133 -19.5t-113 -82.5l-61 47q72 78 147.5 111.5t169.5 33.5 q104 0 176 -44t72 -128q0 -20 -6 -45q-18 -82 -54 -125q-43 -51 -129 -84q123 -47 123 -164q0 -27 -6 -61q-29 -133 -137 -201q-98 -61 -252 -61q-240 0 -285 176zM399 -20l1246 1519h116l-1241 -1519h-121zM993 213l23 98l528 578h137l-129 -586h146l-21 -90h-145l-47 -213 h-107l47 213h-432zM1128 303h318l102 463h-8z" />
<glyph unicode="&#xbf;" horiz-adv-x="796" d="M29 -186q0 35 10 86q27 113 139 223l207 180q117 109 139 213l23 98h110l-32 -147q-20 -88 -123 -185l-201 -188q-109 -113 -133 -221q-6 -29 -6 -51q0 -70 46 -108t122 -38q72 0 133 37q78 47 143 156l90 -51q-70 -119 -169 -185.5t-224 -66.5q-121 0 -197.5 63.5 t-76.5 184.5zM578 881l40 184h177l-41 -184h-176z" />
<glyph unicode="&#xc0;" horiz-adv-x="1251" d="M51 0l801 1479h207l139 -1479h-143l-43 483h-559l-258 -483h-144zM512 594h494l-74 774zM690 1824h158l163 -282h-104z" />
<glyph unicode="&#xc1;" horiz-adv-x="1251" d="M51 0l801 1479h207l139 -1479h-143l-43 483h-559l-258 -483h-144zM512 594h494l-74 774zM753 1542l291 282h158l-344 -282h-105z" />
<glyph unicode="&#xc2;" horiz-adv-x="1251" d="M51 0l801 1479h207l139 -1479h-143l-43 483h-559l-258 -483h-144zM512 594h494l-74 774zM579 1542l297 282h140l170 -282h-136l-120 207l-215 -207h-136z" />
<glyph unicode="&#xc3;" horiz-adv-x="1251" d="M51 0l801 1479h207l139 -1479h-143l-43 483h-559l-258 -483h-144zM512 594h494l-74 774zM567 1564q25 80 82 135q66 63 141 64q43 0 92 -21q10 -4 53.5 -25.5t72 -32.5t55.5 -11q39 0 68.5 27.5t45.5 72.5h78q-37 -92 -82 -139q-57 -59 -143 -59q-31 0 -68 14 q-16 6 -66 30.5t-71 32.5q-37 14 -61 15q-41 0 -72 -30t-47 -73h-78z" />
<glyph unicode="&#xc4;" horiz-adv-x="1251" d="M51 0l801 1479h207l139 -1479h-143l-43 483h-559l-258 -483h-144zM512 594h494l-74 774zM659 1562l43 193h135l-43 -193h-135zM979 1562l43 193h135l-43 -193h-135z" />
<glyph unicode="&#xc5;" horiz-adv-x="1251" d="M51 0l801 1479h207l139 -1479h-143l-43 483h-559l-258 -483h-144zM512 594h494l-74 774zM1130 1738q-18 -86 -92 -145t-158 -59q-74 0 -118.5 45t-44.5 118q0 12 4 41q20 86 94 145.5t158 59.5q72 0 117.5 -44t45.5 -116q0 -20 -6 -45zM790 1738q-4 -20 -4 -28 q0 -47 32 -77t79 -30q55 0 103 40t61 95q4 20 4 31q0 47 -31 76t-78 29q-55 0 -103.5 -39.5t-62.5 -96.5z" />
<glyph unicode="&#xc6;" horiz-adv-x="1933" d="M37 0l1151 1479h952l-24 -111h-697l-121 -545h498l-24 -110h-498l-133 -602h735l-25 -111h-870l106 483h-534l-365 -483h-151zM643 594h469l172 770h-35z" />
<glyph unicode="&#xc7;" horiz-adv-x="1251" d="M231 477q0 121 31 262q76 348 272.5 554t464.5 206q190 0 289 -123q90 -113 90 -305l-131 -27q0 162 -74.5 253.5t-209.5 91.5q-209 0 -363 -189q-139 -172 -203 -461q-31 -139 -30 -258q0 -182 78.5 -286.5t244.5 -104.5q164 0 281 107q90 82 172 254l121 -23 q-92 -215 -226 -324q-154 -125 -374 -124q-211 0 -322 130.5t-111 366.5zM461 -385l45 74q41 -16 69.5 -24.5t45.5 -8.5q133 0 153 84q8 41 -13 62.5t-60 21.5q-49 0 -95 -19l-24 27l160 168h77l-110 -102q16 2 37.5 5t31.5 3q127 0 127 -119q0 -25 -6 -53 q-16 -76 -100 -121q-72 -39 -150 -39q-57 0 -102 8t-86 33z" />
<glyph unicode="&#xc8;" d="M205 0l327 1479h844l-24 -111h-709l-121 -545h510l-24 -110h-510l-133 -602h747l-25 -111h-882zM700 1824h158l163 -282h-104z" />
<glyph unicode="&#xc9;" d="M205 0l327 1479h844l-24 -111h-709l-121 -545h510l-24 -110h-510l-133 -602h747l-25 -111h-882zM763 1542l291 282h158l-344 -282h-105z" />
<glyph unicode="&#xca;" d="M205 0l327 1479h844l-24 -111h-709l-121 -545h510l-24 -110h-510l-133 -602h747l-25 -111h-882zM589 1542l297 282h140l170 -282h-136l-120 207l-215 -207h-136z" />
<glyph unicode="&#xcb;" d="M205 0l327 1479h844l-24 -111h-709l-121 -545h510l-24 -110h-510l-133 -602h747l-25 -111h-882zM669 1562l43 193h135l-43 -193h-135zM989 1562l43 193h135l-43 -193h-135z" />
<glyph unicode="&#xcc;" horiz-adv-x="569" d="M217 0l328 1479h135l-328 -1479h-135zM340 1824h158l163 -282h-104z" />
<glyph unicode="&#xcd;" horiz-adv-x="569" d="M217 0l328 1479h135l-328 -1479h-135zM403 1542l291 282h158l-344 -282h-105z" />
<glyph unicode="&#xce;" horiz-adv-x="569" d="M217 0l328 1479h135l-328 -1479h-135zM229 1542l297 282h140l170 -282h-136l-120 207l-215 -207h-136z" />
<glyph unicode="&#xcf;" horiz-adv-x="569" d="M217 0l328 1479h135l-328 -1479h-135zM309 1562l43 193h135l-43 -193h-135zM629 1562l43 193h135l-43 -193h-135z" />
<glyph unicode="&#xd0;" horiz-adv-x="1366" d="M178 713l25 110h184l145 656h418q262 0 391 -144q117 -129 117 -360q0 -109 -28 -236q-72 -322 -265 -518q-217 -221 -542 -221h-418l157 713h-184zM365 111h286q246 0 411 162.5t232 465.5q27 121 27 228q0 195 -99.5 298t-291.5 103h-287l-121 -545h402l-25 -110h-401z " />
<glyph unicode="&#xd1;" horiz-adv-x="1478" d="M205 0l327 1479h228l430 -1233l276 1233h136l-328 -1479h-139l-488 1368l-307 -1368h-135zM686 1564q25 80 82 135q66 63 141 64q43 0 92 -21q10 -4 53.5 -25.5t72 -32.5t55.5 -11q39 0 68.5 27.5t45.5 72.5h78q-37 -92 -82 -139q-57 -59 -143 -59q-31 0 -68 14 q-16 6 -66 30.5t-71 32.5q-37 14 -61 15q-41 0 -72 -30t-47 -73h-78z" />
<glyph unicode="&#xd2;" horiz-adv-x="1366" d="M233 489q0 113 29 250q74 334 273 543q207 217 479 217q215 0 329.5 -138t114.5 -372q0 -113 -28 -250q-74 -334 -273 -542q-207 -217 -479 -217q-215 0 -330 138t-115 371zM367 492q0 -195 87 -298.5t248 -103.5q207 0 366 171t226 478q31 139 31 248q0 195 -87 298.5 t-249 103.5q-207 0 -365.5 -171t-226.5 -479q-30 -138 -30 -247zM889 1824h158l163 -282h-104z" />
<glyph unicode="&#xd3;" horiz-adv-x="1366" d="M233 489q0 113 29 250q74 334 273 543q207 217 479 217q215 0 329.5 -138t114.5 -372q0 -113 -28 -250q-74 -334 -273 -542q-207 -217 -479 -217q-215 0 -330 138t-115 371zM367 492q0 -195 87 -298.5t248 -103.5q207 0 366 171t226 478q31 139 31 248q0 195 -87 298.5 t-249 103.5q-207 0 -365.5 -171t-226.5 -479q-30 -138 -30 -247zM952 1542l291 282h158l-344 -282h-105z" />
<glyph unicode="&#xd4;" horiz-adv-x="1366" d="M233 489q0 113 29 250q74 334 273 543q207 217 479 217q215 0 329.5 -138t114.5 -372q0 -113 -28 -250q-74 -334 -273 -542q-207 -217 -479 -217q-215 0 -330 138t-115 371zM367 492q0 -195 87 -298.5t248 -103.5q207 0 366 171t226 478q31 139 31 248q0 195 -87 298.5 t-249 103.5q-207 0 -365.5 -171t-226.5 -479q-30 -138 -30 -247zM778 1542l297 282h140l170 -282h-136l-120 207l-215 -207h-136z" />
<glyph unicode="&#xd5;" horiz-adv-x="1366" d="M233 489q0 113 29 250q74 334 273 543q207 217 479 217q215 0 329.5 -138t114.5 -372q0 -113 -28 -250q-74 -334 -273 -542q-207 -217 -479 -217q-215 0 -330 138t-115 371zM367 492q0 -195 87 -298.5t248 -103.5q207 0 366 171t226 478q31 139 31 248q0 195 -87 298.5 t-249 103.5q-207 0 -365.5 -171t-226.5 -479q-30 -138 -30 -247zM766 1564q25 80 82 135q66 63 141 64q43 0 92 -21q10 -4 53.5 -25.5t72 -32.5t55.5 -11q39 0 68.5 27.5t45.5 72.5h78q-37 -92 -82 -139q-57 -59 -143 -59q-31 0 -68 14q-16 6 -66 30.5t-71 32.5 q-37 14 -61 15q-41 0 -72 -30t-47 -73h-78z" />
<glyph unicode="&#xd6;" horiz-adv-x="1366" d="M233 489q0 113 29 250q74 334 273 543q207 217 479 217q215 0 329.5 -138t114.5 -372q0 -113 -28 -250q-74 -334 -273 -542q-207 -217 -479 -217q-215 0 -330 138t-115 371zM367 492q0 -195 87 -298.5t248 -103.5q207 0 366 171t226 478q31 139 31 248q0 195 -87 298.5 t-249 103.5q-207 0 -365.5 -171t-226.5 -479q-30 -138 -30 -247zM858 1562l43 193h135l-43 -193h-135zM1178 1562l43 193h135l-43 -193h-135z" />
<glyph unicode="&#xd7;" horiz-adv-x="1228" d="M98 78l557 454l-354 455l94 78l355 -455l555 455l61 -78l-555 -455l352 -454l-94 -78l-354 455l-555 -455z" />
<glyph unicode="&#xd8;" horiz-adv-x="1366" d="M61 -98l242 280q-72 125 -72 307q0 117 31 250q74 334 273 543q207 217 479 217q201 0 317 -123l172 201h129l-243 -281q72 -125 71 -309q0 -115 -30 -248q-74 -334 -273 -542q-207 -217 -479 -217q-199 0 -316 120l-172 -198h-129zM367 492q0 -109 32 -197l844 979 q-84 115 -254 115q-207 0 -365.5 -171t-226.5 -479q-30 -138 -30 -247zM451 203q82 -113 251 -113q207 0 366 171t226 478q14 70 21.5 130.5t7.5 123.5q0 111 -31 189z" />
<glyph unicode="&#xd9;" horiz-adv-x="1478" d="M293 324q0 74 18 159l221 996h136l-224 -1008q-18 -78 -18 -135q0 -131 83 -188.5t251 -57.5q203 0 315 84q121 90 168 297l223 1008h136l-222 -996q-111 -504 -645 -503q-442 0 -442 344zM887 1824h158l163 -282h-104z" />
<glyph unicode="&#xda;" horiz-adv-x="1478" d="M293 324q0 74 18 159l221 996h136l-224 -1008q-18 -78 -18 -135q0 -131 83 -188.5t251 -57.5q203 0 315 84q121 90 168 297l223 1008h136l-222 -996q-111 -504 -645 -503q-442 0 -442 344zM950 1542l291 282h158l-344 -282h-105z" />
<glyph unicode="&#xdb;" horiz-adv-x="1478" d="M293 324q0 74 18 159l221 996h136l-224 -1008q-18 -78 -18 -135q0 -131 83 -188.5t251 -57.5q203 0 315 84q121 90 168 297l223 1008h136l-222 -996q-111 -504 -645 -503q-442 0 -442 344zM776 1542l297 282h140l170 -282h-136l-120 207l-215 -207h-136z" />
<glyph unicode="&#xdc;" horiz-adv-x="1478" d="M293 324q0 74 18 159l221 996h136l-224 -1008q-18 -78 -18 -135q0 -131 83 -188.5t251 -57.5q203 0 315 84q121 90 168 297l223 1008h136l-222 -996q-111 -504 -645 -503q-442 0 -442 344zM856 1562l43 193h135l-43 -193h-135zM1176 1562l43 193h135l-43 -193h-135z" />
<glyph unicode="&#xdd;" d="M369 1479h151l203 -731l551 731h151l-657 -852l-139 -627h-135l139 627zM1030 1542l291 282h158l-344 -282h-105z" />
<glyph unicode="&#xde;" horiz-adv-x="1251" d="M205 0l327 1479h136l-68 -308h311q217 0 318.5 -77.5t101.5 -223.5q0 -51 -12 -110q-43 -195 -182 -299q-152 -113 -408 -113h-311l-78 -348h-135zM442 459h312q186 0 291.5 75.5t138.5 225.5q10 55 10 90q0 104 -73.5 157.5t-233.5 53.5h-312z" />
<glyph unicode="&#xdf;" horiz-adv-x="1024" d="M156 0l241 1092q39 180 154 283.5t293 103.5q131 0 206.5 -76t75.5 -201q0 -37 -10 -88q-49 -217 -258 -307q207 -70 207 -291q0 -49 -12 -104q-45 -203 -162 -317.5t-285 -114.5q-45 0 -95 12t-83 35l64 92q29 -16 67.5 -28.5t73.5 -12.5q104 0 182 86t111 233 q14 59 14 115q0 117 -79 171t-232 54l20 99q139 0 225.5 66.5t118.5 215.5q10 51 11 86q0 176 -201 176q-117 0 -193 -90q-61 -74 -88 -192l-243 -1098h-123z" />
<glyph unicode="&#xe0;" horiz-adv-x="1024" d="M102 188v41q6 20 9 29q31 141 122 218t261 130q111 35 397 94l16 74q10 45 11 74q0 72 -48.5 105.5t-158.5 33.5q-94 0 -182.5 -48t-170.5 -144l-71 49q94 125 205.5 183t242.5 58q152 0 224.5 -52t72.5 -167q0 -55 -14 -114l-123 -557q-14 -59 -20.5 -101.5t-6.5 -93.5 h-118l12 129q-121 -80 -212 -114.5t-208 -34.5q-111 0 -175.5 54t-64.5 154zM227 213q0 -66 41 -100.5t115 -34.5q86 0 195.5 47t205.5 129l78 348q-354 -74 -493 -160q-109 -68 -136 -182q-6 -24 -6 -47zM631 1466h158l163 -282h-104z" />
<glyph unicode="&#xe1;" horiz-adv-x="1024" d="M102 188v41q6 20 9 29q31 141 122 218t261 130q111 35 397 94l16 74q10 45 11 74q0 72 -48.5 105.5t-158.5 33.5q-94 0 -182.5 -48t-170.5 -144l-71 49q94 125 205.5 183t242.5 58q152 0 224.5 -52t72.5 -167q0 -55 -14 -114l-123 -557q-14 -59 -20.5 -101.5t-6.5 -93.5 h-118l12 129q-121 -80 -212 -114.5t-208 -34.5q-111 0 -175.5 54t-64.5 154zM227 213q0 -66 41 -100.5t115 -34.5q86 0 195.5 47t205.5 129l78 348q-354 -74 -493 -160q-109 -68 -136 -182q-6 -24 -6 -47zM694 1184l291 282h158l-344 -282h-105z" />
<glyph unicode="&#xe2;" horiz-adv-x="1024" d="M102 188v41q6 20 9 29q31 141 122 218t261 130q111 35 397 94l16 74q10 45 11 74q0 72 -48.5 105.5t-158.5 33.5q-94 0 -182.5 -48t-170.5 -144l-71 49q94 125 205.5 183t242.5 58q152 0 224.5 -52t72.5 -167q0 -55 -14 -114l-123 -557q-14 -59 -20.5 -101.5t-6.5 -93.5 h-118l12 129q-121 -80 -212 -114.5t-208 -34.5q-111 0 -175.5 54t-64.5 154zM227 213q0 -66 41 -100.5t115 -34.5q86 0 195.5 47t205.5 129l78 348q-354 -74 -493 -160q-109 -68 -136 -182q-6 -24 -6 -47zM520 1184l297 282h140l170 -282h-136l-120 207l-215 -207h-136z" />
<glyph unicode="&#xe3;" horiz-adv-x="1024" d="M102 188v41q6 20 9 29q31 141 122 218t261 130q111 35 397 94l16 74q10 45 11 74q0 72 -48.5 105.5t-158.5 33.5q-94 0 -182.5 -48t-170.5 -144l-71 49q94 125 205.5 183t242.5 58q152 0 224.5 -52t72.5 -167q0 -55 -14 -114l-123 -557q-14 -59 -20.5 -101.5t-6.5 -93.5 h-118l12 129q-121 -80 -212 -114.5t-208 -34.5q-111 0 -175.5 54t-64.5 154zM227 213q0 -66 41 -100.5t115 -34.5q86 0 195.5 47t205.5 129l78 348q-354 -74 -493 -160q-109 -68 -136 -182q-6 -24 -6 -47zM508 1206q25 80 82 135q66 63 141 64q43 0 92 -21q10 -4 53.5 -25.5 t72 -32.5t55.5 -11q39 0 68.5 27.5t45.5 72.5h78q-37 -92 -82 -139q-57 -59 -143 -59q-31 0 -68 14q-16 6 -66 30.5t-71 32.5q-37 14 -61 15q-41 0 -72 -30t-47 -73h-78z" />
<glyph unicode="&#xe4;" horiz-adv-x="1024" d="M102 188v41q6 20 9 29q31 141 122 218t261 130q111 35 397 94l16 74q10 45 11 74q0 72 -48.5 105.5t-158.5 33.5q-94 0 -182.5 -48t-170.5 -144l-71 49q94 125 205.5 183t242.5 58q152 0 224.5 -52t72.5 -167q0 -55 -14 -114l-123 -557q-14 -59 -20.5 -101.5t-6.5 -93.5 h-118l12 129q-121 -80 -212 -114.5t-208 -34.5q-111 0 -175.5 54t-64.5 154zM227 213q0 -66 41 -100.5t115 -34.5q86 0 195.5 47t205.5 129l78 348q-354 -74 -493 -160q-109 -68 -136 -182q-6 -24 -6 -47zM600 1204l43 193h135l-43 -193h-135zM920 1204l43 193h135l-43 -193 h-135z" />
<glyph unicode="&#xe5;" horiz-adv-x="1024" d="M102 188v41q6 20 9 29q31 141 122 218t261 130q111 35 397 94l16 74q10 45 11 74q0 72 -48.5 105.5t-158.5 33.5q-94 0 -182.5 -48t-170.5 -144l-71 49q94 125 205.5 183t242.5 58q152 0 224.5 -52t72.5 -167q0 -55 -14 -114l-123 -557q-14 -59 -20.5 -101.5t-6.5 -93.5 h-118l12 129q-121 -80 -212 -114.5t-208 -34.5q-111 0 -175.5 54t-64.5 154zM227 213q0 -66 41 -100.5t115 -34.5q86 0 195.5 47t205.5 129l78 348q-354 -74 -493 -160q-109 -68 -136 -182q-6 -24 -6 -47zM1071 1380q-18 -86 -92 -145t-158 -59q-74 0 -118.5 45t-44.5 118 q0 12 4 41q20 86 94 145.5t158 59.5q72 0 117.5 -44t45.5 -116q0 -20 -6 -45zM731 1380q-4 -20 -4 -28q0 -47 32 -77t79 -30q55 0 103 40t61 95q4 20 4 31q0 47 -31 76t-78 29q-55 0 -103.5 -39.5t-62.5 -96.5z" />
<glyph unicode="&#xe6;" horiz-adv-x="1593" d="M102 188v41q6 20 9 29q31 137 125 221q84 74 245 127q98 33 367 94l16 74q6 29 6 55q0 70 -41 111q-47 47 -143 47q-111 0 -187.5 -48t-136.5 -148l-79 53q80 125 182 183t233 58q111 0 179 -34q84 -43 108 -140q158 174 361 174q158 0 235 -90q72 -84 72 -243 q0 -96 -29 -224h-692q-23 -106 -23 -188q0 -123 50.5 -192.5t164.5 -69.5q106 0 178 43t183 172l88 -53q-119 -143 -223.5 -201.5t-255.5 -58.5q-106 0 -181 46t-120 134q-102 -100 -222 -144q-100 -37 -229 -36q-111 0 -175.5 54t-64.5 154zM227 213q0 -66 41 -100.5 t115 -34.5q90 0 193.5 48t171.5 128l77 348q-330 -74 -460 -160q-104 -68 -132 -182q-6 -24 -6 -47zM954 627h570q6 53 6 98q0 127 -49 194.5t-160 67.5q-133 0 -231 -104q-91 -96 -136 -256z" />
<glyph unicode="&#xe7;" horiz-adv-x="1024" d="M170 354q0 37 6 84t17 94q57 268 212.5 410.5t366.5 142.5q147 0 227 -74.5t99 -213.5l-119 -31q-25 104 -70 156q-57 66 -157 65q-160 0 -267 -102q-119 -115 -170 -353q-18 -90 -18 -163q0 -139 63.5 -215t188.5 -76q106 0 199 59q76 49 170 162l88 -47 q-104 -127 -207 -193q-127 -80 -271 -79q-174 0 -266 100t-92 274zM297 -385l45 74q41 -16 69.5 -24.5t45.5 -8.5q133 0 153 84q8 41 -13 62.5t-60 21.5q-49 0 -95 -19l-24 27l160 168h77l-110 -102q16 2 37.5 5t31.5 3q127 0 127 -119q0 -25 -6 -53q-16 -76 -100 -121 q-72 -39 -150 -39q-57 0 -102 8t-86 33z" />
<glyph unicode="&#xe8;" horiz-adv-x="1024" d="M168 334q0 88 25 198q53 248 205.5 400.5t353.5 152.5q166 0 246.5 -92t80.5 -262q0 -92 -24 -203h-742q-18 -84 -18 -159q0 -135 62.5 -213t197.5 -78q106 0 178 43t182 172l89 -53q-119 -143 -223.5 -201.5t-256.5 -58.5q-172 0 -264 88t-92 266zM336 627h618 q6 47 7 86q0 131 -57.5 202.5t-176.5 71.5q-147 0 -264 -127q-98 -106 -127 -233zM676 1466h158l163 -282h-104z" />
<glyph unicode="&#xe9;" horiz-adv-x="1024" d="M168 334q0 88 25 198q53 248 205.5 400.5t353.5 152.5q166 0 246.5 -92t80.5 -262q0 -92 -24 -203h-742q-18 -84 -18 -159q0 -135 62.5 -213t197.5 -78q106 0 178 43t182 172l89 -53q-119 -143 -223.5 -201.5t-256.5 -58.5q-172 0 -264 88t-92 266zM336 627h618 q6 47 7 86q0 131 -57.5 202.5t-176.5 71.5q-147 0 -264 -127q-98 -106 -127 -233zM739 1184l291 282h158l-344 -282h-105z" />
<glyph unicode="&#xea;" horiz-adv-x="1024" d="M168 334q0 88 25 198q53 248 205.5 400.5t353.5 152.5q166 0 246.5 -92t80.5 -262q0 -92 -24 -203h-742q-18 -84 -18 -159q0 -135 62.5 -213t197.5 -78q106 0 178 43t182 172l89 -53q-119 -143 -223.5 -201.5t-256.5 -58.5q-172 0 -264 88t-92 266zM336 627h618 q6 47 7 86q0 131 -57.5 202.5t-176.5 71.5q-147 0 -264 -127q-98 -106 -127 -233zM565 1184l297 282h140l170 -282h-136l-120 207l-215 -207h-136z" />
<glyph unicode="&#xeb;" horiz-adv-x="1024" d="M168 334q0 88 25 198q53 248 205.5 400.5t353.5 152.5q166 0 246.5 -92t80.5 -262q0 -92 -24 -203h-742q-18 -84 -18 -159q0 -135 62.5 -213t197.5 -78q106 0 178 43t182 172l89 -53q-119 -143 -223.5 -201.5t-256.5 -58.5q-172 0 -264 88t-92 266zM336 627h618 q6 47 7 86q0 131 -57.5 202.5t-176.5 71.5q-147 0 -264 -127q-98 -106 -127 -233zM645 1204l43 193h135l-43 -193h-135zM965 1204l43 193h135l-43 -193h-135z" />
<glyph unicode="&#xec;" horiz-adv-x="454" d="M289 0h-123l235 1065h123zM297 1466h158l163 -282h-104z" />
<glyph unicode="&#xed;" horiz-adv-x="454" d="M289 0h-123l235 1065h123zM360 1184l291 282h158l-344 -282h-105z" />
<glyph unicode="&#xee;" horiz-adv-x="454" d="M289 0h-123l235 1065h123zM186 1184l297 282h140l170 -282h-136l-120 207l-215 -207h-136z" />
<glyph unicode="&#xef;" horiz-adv-x="454" d="M289 0h-123l235 1065h123zM266 1204l43 193h135l-43 -193h-135zM586 1204l43 193h135l-43 -193h-135z" />
<glyph unicode="&#xf0;" horiz-adv-x="1024" d="M168 330q0 98 25 202q53 244 178 386q147 168 381 167q121 0 194 -45l4 4q-31 102 -94 199l-233 -108l-39 82l213 100q-55 63 -125 108l121 54q35 -27 49 -39q37 -31 69 -70l234 109l39 -82l-213 -101q72 -100 103.5 -213.5t31.5 -242.5q0 -74 -10.5 -152t-26.5 -156 q-55 -244 -180 -385q-147 -168 -381 -167q-178 0 -264 100q-76 88 -76 250zM291 336q0 -258 237 -258q160 0 263.5 115.5t154.5 338.5q25 109 25 193q0 129 -58.5 195.5t-181.5 66.5q-162 0 -264 -116.5t-152 -338.5q-24 -110 -24 -196z" />
<glyph unicode="&#xf1;" d="M168 0l235 1065h123l-37 -168q119 100 197 139q98 49 209 49q254 0 254 -227q0 -53 -16 -131l-162 -727h-123l158 715q16 72 16 119q0 154 -172 153q-102 0 -225 -84q-33 -23 -160 -119l-174 -784h-123zM502 1206q25 80 82 135q66 63 141 64q43 0 92 -21 q10 -4 53.5 -25.5t72 -32.5t55.5 -11q39 0 68.5 27.5t45.5 72.5h78q-37 -92 -82 -139q-57 -59 -143 -59q-31 0 -68 14q-16 6 -66 30.5t-71 32.5q-37 14 -61 15q-41 0 -72 -30t-47 -73h-78z" />
<glyph unicode="&#xf2;" horiz-adv-x="1024" d="M168 330q0 98 25 202q53 244 178 386q147 168 381 167q180 0 264 -100q76 -90 76 -254q0 -90 -23 -199q-55 -244 -180 -385q-147 -168 -381 -167q-178 0 -264 100q-76 88 -76 250zM291 336q0 -258 237 -258q160 0 263.5 115.5t154.5 338.5q25 109 25 193 q0 129 -58.5 195.5t-181.5 66.5q-162 0 -264 -116.5t-152 -338.5q-24 -110 -24 -196zM666 1466h158l163 -282h-104z" />
<glyph unicode="&#xf3;" horiz-adv-x="1024" d="M168 330q0 98 25 202q53 244 178 386q147 168 381 167q180 0 264 -100q76 -90 76 -254q0 -90 -23 -199q-55 -244 -180 -385q-147 -168 -381 -167q-178 0 -264 100q-76 88 -76 250zM291 336q0 -258 237 -258q160 0 263.5 115.5t154.5 338.5q25 109 25 193 q0 129 -58.5 195.5t-181.5 66.5q-162 0 -264 -116.5t-152 -338.5q-24 -110 -24 -196zM729 1184l291 282h158l-344 -282h-105z" />
<glyph unicode="&#xf4;" horiz-adv-x="1024" d="M168 330q0 98 25 202q53 244 178 386q147 168 381 167q180 0 264 -100q76 -90 76 -254q0 -90 -23 -199q-55 -244 -180 -385q-147 -168 -381 -167q-178 0 -264 100q-76 88 -76 250zM291 336q0 -258 237 -258q160 0 263.5 115.5t154.5 338.5q25 109 25 193 q0 129 -58.5 195.5t-181.5 66.5q-162 0 -264 -116.5t-152 -338.5q-24 -110 -24 -196zM555 1184l297 282h140l170 -282h-136l-120 207l-215 -207h-136z" />
<glyph unicode="&#xf5;" horiz-adv-x="1024" d="M168 330q0 98 25 202q53 244 178 386q147 168 381 167q180 0 264 -100q76 -90 76 -254q0 -90 -23 -199q-55 -244 -180 -385q-147 -168 -381 -167q-178 0 -264 100q-76 88 -76 250zM291 336q0 -258 237 -258q160 0 263.5 115.5t154.5 338.5q25 109 25 193 q0 129 -58.5 195.5t-181.5 66.5q-162 0 -264 -116.5t-152 -338.5q-24 -110 -24 -196zM543 1206q25 80 82 135q66 63 141 64q43 0 92 -21q10 -4 53.5 -25.5t72 -32.5t55.5 -11q39 0 68.5 27.5t45.5 72.5h78q-37 -92 -82 -139q-57 -59 -143 -59q-31 0 -68 14q-16 6 -66 30.5 t-71 32.5q-37 14 -61 15q-41 0 -72 -30t-47 -73h-78z" />
<glyph unicode="&#xf6;" horiz-adv-x="1024" d="M168 330q0 98 25 202q53 244 178 386q147 168 381 167q180 0 264 -100q76 -90 76 -254q0 -90 -23 -199q-55 -244 -180 -385q-147 -168 -381 -167q-178 0 -264 100q-76 88 -76 250zM291 336q0 -258 237 -258q160 0 263.5 115.5t154.5 338.5q25 109 25 193 q0 129 -58.5 195.5t-181.5 66.5q-162 0 -264 -116.5t-152 -338.5q-24 -110 -24 -196zM635 1204l43 193h135l-43 -193h-135zM955 1204l43 193h135l-43 -193h-135z" />
<glyph unicode="&#xf7;" horiz-adv-x="1228" d="M188 477l25 111h1065l-25 -111h-1065zM516 63q0 16 5 44t48 63t90 35q43 0 69 -27.5t26 -71.5q0 -12 -2 -18q-10 -47 -53.5 -82t-90.5 -35q-41 0 -66.5 25.5t-25.5 66.5zM713 952q0 16 2 25q10 47 51 82t90 35q41 0 67.5 -27t26.5 -66q0 -16 -2 -24q-10 -47 -53 -82 t-90 -35q-41 0 -66.5 25.5t-25.5 66.5z" />
<glyph unicode="&#xf8;" horiz-adv-x="1024" d="M-8 -164l229 275q-27 41 -40 97t-13 122q0 98 25 202q53 244 178 386q147 168 381 167q147 0 227 -67l176 211h117l-232 -277q27 -41 39.5 -97t12.5 -120q0 -94 -23 -203q-55 -244 -180 -385q-147 -168 -381 -167q-78 0 -132 16t-93 51l-177 -211h-114zM291 342 q0 -72 18 -125l594 709q-59 61 -172 61q-162 0 -264 -116.5t-152 -338.5q-24 -108 -24 -190zM358 137q59 -59 170 -59q160 0 263.5 115.5t154.5 338.5q25 111 25 195q0 70 -19 119z" />
<glyph unicode="&#xf9;" d="M227 205q0 55 17 133l159 727h123l-157 -715q-16 -72 -17 -119q0 -154 172 -153q102 0 226 84q33 23 159 119l174 784h123l-235 -1065h-123l37 168q-119 -100 -197 -139q-98 -49 -209 -49q-252 0 -252 225zM698 1466h158l163 -282h-104z" />
<glyph unicode="&#xfa;" d="M227 205q0 55 17 133l159 727h123l-157 -715q-16 -72 -17 -119q0 -154 172 -153q102 0 226 84q33 23 159 119l174 784h123l-235 -1065h-123l37 168q-119 -100 -197 -139q-98 -49 -209 -49q-252 0 -252 225zM761 1184l291 282h158l-344 -282h-105z" />
<glyph unicode="&#xfb;" d="M227 205q0 55 17 133l159 727h123l-157 -715q-16 -72 -17 -119q0 -154 172 -153q102 0 226 84q33 23 159 119l174 784h123l-235 -1065h-123l37 168q-119 -100 -197 -139q-98 -49 -209 -49q-252 0 -252 225zM587 1184l297 282h140l170 -282h-136l-120 207l-215 -207h-136z " />
<glyph unicode="&#xfc;" d="M227 205q0 55 17 133l159 727h123l-157 -715q-16 -72 -17 -119q0 -154 172 -153q102 0 226 84q33 23 159 119l174 784h123l-235 -1065h-123l37 168q-119 -100 -197 -139q-98 -49 -209 -49q-252 0 -252 225zM667 1204l43 193h135l-43 -193h-135zM987 1204l43 193h135 l-43 -193h-135z" />
<glyph unicode="&#xfd;" horiz-adv-x="909" d="M-47 -365l20 101l53.5 -8.5t67.5 -6.5q72 0 144 64q84 76 161 231l-139 1049h135l103 -866l491 866h131l-649 -1141q-94 -166 -176 -229q-92 -72 -232 -72q-69 0 -110 12zM516 1184l291 282h158l-344 -282h-105z" />
<glyph unicode="&#xfe;" d="M104 -377l412 1856h123l-127 -578q172 184 365 184q160 0 241.5 -107.5t81.5 -279.5q0 -82 -18 -172q-59 -270 -207 -411q-139 -135 -334 -135q-106 0 -170.5 35.5t-128.5 123.5l-115 -516h-123zM371 268q20 -61 92 -121q84 -70 166 -69q162 0 273.5 124t160.5 347 q18 78 18 151q0 129 -53 203q-59 84 -178 84q-90 0 -182 -55q-59 -37 -181 -139z" />
<glyph unicode="&#xff;" horiz-adv-x="909" d="M-47 -365l20 101l53.5 -8.5t67.5 -6.5q72 0 144 64q84 76 161 231l-139 1049h135l103 -866l491 866h131l-649 -1141q-94 -166 -176 -229q-92 -72 -232 -72q-69 0 -110 12zM422 1204l43 193h135l-43 -193h-135zM742 1204l43 193h135l-43 -193h-135z" />
<glyph unicode="&#x131;" horiz-adv-x="454" d="M289 0h-123l235 1065h123z" />
<glyph unicode="&#x152;" horiz-adv-x="2048" d="M229 471q0 115 33 268q74 328 285 537q227 223 543 223q55 0 141 -6q201 -14 227 -14h797l-25 -111h-698l-121 -545h500l-25 -110h-500l-133 -602h738l-25 -111h-827q-66 0 -154 -6q-205 -14 -231 -14q-270 0 -402 133q-123 122 -123 358zM367 500q0 -203 111.5 -306.5 t344.5 -103.5q145 0 229.5 52.5t106.5 152.5l197 889q6 29 6 51q0 154 -252 154q-283 0 -469 -179q-176 -168 -244 -471q-30 -133 -30 -239z" />
<glyph unicode="&#x153;" horiz-adv-x="1705" d="M168 330q0 98 25 202q53 244 176 386q145 168 374 167q133 0 211 -65q70 -59 90 -166q61 98 152 158q113 74 252 73q158 0 235.5 -90t77.5 -256q0 -96 -24 -211h-699q-23 -106 -22 -188q0 -123 52 -192.5t169 -69.5q106 0 178 43t182 172l89 -53q-119 -143 -223.5 -201.5 t-256.5 -58.5q-248 0 -307 233q-70 -106 -162 -166q-106 -68 -237 -67q-174 0 -258 100q-74 88 -74 250zM291 336q0 -258 229 -258q145 0 246.5 117.5t151.5 336.5q25 111 24 197q0 258 -219 258q-154 0 -256 -117.5t-152 -337.5q-24 -110 -24 -196zM1061 627h575q6 49 6 94 q0 129 -51 197.5t-166 68.5q-139 0 -235 -104q-84 -90 -129 -256z" />
<glyph unicode="&#x178;" d="M369 1479h151l203 -731l551 731h151l-657 -852l-139 -627h-135l139 627zM936 1562l43 193h135l-43 -193h-135zM1256 1562l43 193h135l-43 -193h-135z" />
<glyph unicode="&#x2c6;" horiz-adv-x="454" d="M186 1184l297 282h140l170 -282h-136l-120 207l-215 -207h-136z" />
<glyph unicode="&#x2da;" horiz-adv-x="454" d="M737 1380q-18 -86 -92 -145t-158 -59q-74 0 -118.5 45t-44.5 118q0 12 4 41q20 86 94 145.5t158 59.5q72 0 117.5 -44t45.5 -116q0 -20 -6 -45zM397 1380q-4 -20 -4 -28q0 -47 32 -77t79 -30q55 0 103 40t61 95q4 20 4 31q0 47 -31 76t-78 29q-55 0 -103.5 -39.5 t-62.5 -96.5z" />
<glyph unicode="&#x2dc;" horiz-adv-x="454" d="M174 1206q25 80 82 135q66 63 141 64q43 0 92 -21q10 -4 53.5 -25.5t72 -32.5t55.5 -11q39 0 68.5 27.5t45.5 72.5h78q-37 -92 -82 -139q-57 -59 -143 -59q-31 0 -68 14q-16 6 -66 30.5t-71 32.5q-37 14 -61 15q-41 0 -72 -30t-47 -73h-78z" />
<glyph unicode="&#x2000;" horiz-adv-x="970" />
<glyph unicode="&#x2001;" horiz-adv-x="1943" />
<glyph unicode="&#x2002;" horiz-adv-x="970" />
<glyph unicode="&#x2003;" horiz-adv-x="1943" />
<glyph unicode="&#x2004;" horiz-adv-x="647" />
<glyph unicode="&#x2005;" horiz-adv-x="485" />
<glyph unicode="&#x2006;" horiz-adv-x="323" />
<glyph unicode="&#x2007;" horiz-adv-x="323" />
<glyph unicode="&#x2008;" horiz-adv-x="241" />
<glyph unicode="&#x2009;" horiz-adv-x="387" />
<glyph unicode="&#x200a;" horiz-adv-x="106" />
<glyph unicode="&#x2010;" horiz-adv-x="681" d="M193 477l24 111h510l-25 -111h-509z" />
<glyph unicode="&#x2011;" horiz-adv-x="681" d="M193 477l24 111h510l-25 -111h-509z" />
<glyph unicode="&#x2013;" horiz-adv-x="1024" d="M109 487l20 91h1024l-20 -91h-1024z" />
<glyph unicode="&#x2014;" horiz-adv-x="2048" d="M109 487l20 91h2048l-20 -91h-2048z" />
<glyph unicode="&#x2018;" horiz-adv-x="454" d="M346 1008l41 184l197 307h80l-187 -307h86l-41 -184h-176z" />
<glyph unicode="&#x2019;" horiz-adv-x="454" d="M342 987l186 307h-86l41 185h176l-41 -185l-196 -307h-80z" />
<glyph unicode="&#x201a;" horiz-adv-x="454" d="M55 -307l187 307h-86l41 184h176l-41 -184l-197 -307h-80z" />
<glyph unicode="&#x201c;" horiz-adv-x="909" d="M422 1008l41 184l196 307h80l-186 -307h86l-41 -184h-176zM764 1008l41 184l196 307h80l-186 -307h86l-41 -184h-176z" />
<glyph unicode="&#x201d;" horiz-adv-x="909" d="M379 987l186 307h-86l41 185h176l-41 -185l-196 -307h-80zM721 987l186 307h-86l41 185h176l-41 -185l-196 -307h-80z" />
<glyph unicode="&#x201e;" horiz-adv-x="909" d="M92 -307l187 307h-86l40 184h177l-41 -184l-197 -307h-80zM434 -307l187 307h-86l40 184h177l-41 -184l-197 -307h-80z" />
<glyph unicode="&#x2022;" horiz-adv-x="1024" d="M297 659v33q0 14 8 47q33 154 165 261.5t286 107.5q131 0 214 -81t83 -208q0 -14 -1 -31.5t-8 -48.5q-35 -154 -167 -262t-285 -108q-133 0 -214 80.5t-81 209.5z" />
<glyph unicode="&#x2026;" horiz-adv-x="2048" d="M254 0l41 184h176l-41 -184h-176zM936 0l41 184h176l-41 -184h-176zM1618 0l41 184h176l-41 -184h-176z" />
<glyph unicode="&#x202f;" horiz-adv-x="387" />
<glyph unicode="&#x2039;" horiz-adv-x="681" d="M250 537l317 311h135l-323 -311l182 -320h-135z" />
<glyph unicode="&#x203a;" horiz-adv-x="681" d="M215 217l324 311l-183 320h136l176 -320l-318 -311h-135z" />
<glyph unicode="&#x205f;" horiz-adv-x="485" />
<glyph unicode="&#x2122;" horiz-adv-x="2027" d="M418 1389l20 90h656l-21 -90h-272l-166 -754h-103l166 754h-280zM1059 635l186 844h174l123 -672l414 672h174l-186 -844h-103l166 754l-475 -754h-62l-139 754l-170 -754h-102z" />
</font>
</defs>
</svg>
